<?xml version="1.0" encoding="utf-8"?>
<!-- Generator: Adobe Illustrator 18.0.0, SVG Export Plug-In . SVG Version: 6.00 Build 0)  -->
<!DOCTYPE svg PUBLIC "-//W3C//DTD SVG 1.1//EN" "http://www.w3.org/Graphics/SVG/1.1/DTD/svg11.dtd">
<svg version="1.1" id="Layer_1" xmlns="http://www.w3.org/2000/svg" xmlns:xlink="http://www.w3.org/1999/xlink" x="0px" y="0px"
	 viewBox="0 0 379.5 131.2" enable-background="new 0 0 379.5 131.2" xml:space="preserve">
<g>
	<defs>
		<rect id="SVGID_1_" width="379.5" height="131.2"/>
	</defs>
	<clipPath id="SVGID_2_">
		<use xlink:href="#SVGID_1_"  overflow="visible"/>
	</clipPath>
	<path clip-path="url(#SVGID_2_)" fill="#FFFFFF" d="M167.1,24c-1.9-0.5-3.7-0.8-5.4-0.8c-2.7,0-4.8,0.5-6.4,1.6
		c-1.6,1.1-2.4,2.5-2.4,4.3c0,1.6,0.4,2.9,1.3,3.9c0.9,1,2,1.8,3.3,2.4c1.3,0.6,3.1,1.2,5.4,1.9c2.6,0.8,4.8,1.6,6.4,2.3
		c1.6,0.8,3,1.9,4.1,3.3c1.1,1.5,1.7,3.4,1.7,5.8c0,2.1-0.6,3.9-1.8,5.5c-1.2,1.6-2.8,2.8-4.9,3.7c-2.1,0.9-4.6,1.3-7.3,1.3
		c-2.7,0-5.4-0.5-8-1.6c-2.6-1.1-4.8-2.5-6.7-4.3l1.8-3.2c1.7,1.7,3.8,3.1,6.1,4c2.3,1,4.6,1.5,6.8,1.5c3,0,5.3-0.6,7.1-1.8
		c1.7-1.2,2.6-2.8,2.6-4.9c0-1.6-0.4-3-1.3-4c-0.9-1-2-1.8-3.3-2.4c-1.3-0.6-3.1-1.2-5.5-2c-2.6-0.8-4.8-1.6-6.4-2.3
		c-1.6-0.7-3-1.8-4.1-3.2c-1.1-1.4-1.7-3.3-1.7-5.6c0-2,0.6-3.7,1.7-5.2c1.1-1.5,2.7-2.6,4.7-3.4c2-0.8,4.3-1.2,7-1.2
		c2.1,0,4.3,0.3,6.4,0.9c2.1,0.6,4,1.5,5.7,2.5l-1.7,3.3C170.8,25.3,169,24.5,167.1,24"/>
	<path clip-path="url(#SVGID_2_)" fill="#FFFFFF" d="M223.9,62.4c-1.5,1.4-3.1,2.4-4.8,3.2c-1.7,0.7-3.4,1.1-5,1.1
		c-4.2,0-8.3-2.5-12.2-7.4h-0.7c-3.7,0-7.1-0.9-10.2-2.7c-3.1-1.8-5.6-4.2-7.4-7.3c-1.8-3.1-2.7-6.4-2.7-10c0-3.6,0.9-6.9,2.7-9.9
		c1.8-3,4.3-5.4,7.4-7.2c3.1-1.8,6.5-2.7,10.2-2.7c3.7,0,7.1,0.9,10.2,2.7c3.1,1.8,5.6,4.2,7.4,7.2c1.8,3,2.7,6.3,2.7,9.9
		c0,3.1-0.7,6-2,8.7c-1.3,2.7-3.2,5-5.5,6.8c-2.3,1.9-5,3.1-8,3.9c3,3.1,5.8,4.6,8.4,4.6c2.3,0,4.9-1.2,7.6-3.6L223.9,62.4z
		 M187,47.6c1.5,2.5,3.5,4.5,6,6c2.5,1.5,5.3,2.2,8.3,2.2c2.9,0,5.7-0.7,8.2-2.2c2.5-1.5,4.5-3.5,6-6c1.5-2.5,2.2-5.3,2.2-8.3
		c0-3-0.7-5.7-2.2-8.2c-1.5-2.5-3.5-4.5-6-5.9c-2.5-1.5-5.2-2.2-8.2-2.2c-3,0-5.7,0.7-8.3,2.2c-2.5,1.5-4.5,3.4-6,5.9
		c-1.5,2.5-2.2,5.2-2.2,8.2C184.8,42.3,185.5,45.1,187,47.6"/>
	<path clip-path="url(#SVGID_2_)" fill="#FFFFFF" d="M237,52.5c2.2,2.2,5.2,3.3,9.1,3.3c3.9,0,6.9-1.1,9-3.3
		c2.2-2.2,3.2-5.4,3.2-9.4V19.9h3.9v23.2c0,5.1-1.4,9-4.3,11.9c-2.8,2.9-6.8,4.3-11.9,4.3c-5.1,0-9-1.4-11.9-4.3
		c-2.9-2.9-4.3-6.8-4.3-11.9V19.9h3.9v23.2C233.8,47.1,234.9,50.2,237,52.5"/>
	<path clip-path="url(#SVGID_2_)" fill="#FFFFFF" d="M301.7,58.9L297,48.6h-21.7l-4.6,10.4h-4.1l17.6-39h4l17.6,39H301.7z
		 M276.9,45.1h18.6L286.1,24L276.9,45.1z"/>
	<path clip-path="url(#SVGID_2_)" fill="#FFFFFF" d="M338,58.9l-8.4-12.7c-1.2,0.1-2.1,0.1-2.7,0.1h-10.7v12.6h-3.9v-39h14.6
		c4.9,0,8.6,1.1,11.3,3.4c2.7,2.3,4,5.4,4,9.6c0,3.2-0.8,5.9-2.3,8.1c-1.6,2.2-3.8,3.7-6.7,4.5l9.4,13.5H338z M326.8,42.9
		c3.7,0,6.6-0.8,8.6-2.5c2-1.7,3-4.1,3-7.3c0-3.1-1-5.5-3-7.1c-2-1.6-4.9-2.5-8.6-2.5h-10.7v19.5H326.8z"/>
	<polygon clip-path="url(#SVGID_2_)" fill="#FFFFFF" points="352.6,19.9 378.7,19.9 378.7,23.4 356.5,23.4 356.5,37.3 376.4,37.3 
		376.4,40.8 356.5,40.8 356.5,55.5 379.5,55.5 379.5,58.9 352.6,58.9 	"/>
	<path clip-path="url(#SVGID_2_)" fill="#FFFFFF" d="M168.4,79.2c-2.1-0.7-4-1-5.6-1c-1.8,0-3.2,0.3-4.2,1c-1,0.7-1.6,1.6-1.6,2.8
		c0,1.1,0.4,2,1.1,2.7c0.7,0.7,1.6,1.3,2.7,1.8c1.1,0.5,2.6,1,4.5,1.5c2.6,0.8,4.8,1.6,6.5,2.3c1.7,0.8,3.1,1.9,4.3,3.5
		c1.2,1.5,1.8,3.5,1.8,6c0,2.4-0.6,4.5-1.9,6.2c-1.3,1.8-3.1,3.1-5.3,4c-2.3,0.9-4.8,1.4-7.7,1.4c-3.1,0-6-0.6-8.9-1.7
		c-2.9-1.1-5.4-2.7-7.6-4.6l3.1-6.4c2,1.8,4.2,3.3,6.6,4.3c2.5,1,4.7,1.6,6.9,1.6c2.1,0,3.7-0.4,4.9-1.2c1.2-0.8,1.8-1.9,1.8-3.3
		c0-1.1-0.4-2-1.1-2.8c-0.7-0.7-1.6-1.3-2.8-1.8c-1.1-0.4-2.6-0.9-4.6-1.5c-2.6-0.8-4.8-1.5-6.5-2.3c-1.7-0.7-3.1-1.9-4.3-3.4
		c-1.2-1.5-1.8-3.5-1.8-5.9c0-2.3,0.6-4.3,1.8-5.9c1.2-1.7,2.9-3,5.1-3.9c2.2-0.9,4.8-1.4,7.7-1.4c2.5,0,5,0.4,7.5,1.1
		c2.5,0.7,4.7,1.8,6.6,3l-3,6.5C172.5,80.9,170.5,79.9,168.4,79.2"/>
	<rect x="185" y="72" clip-path="url(#SVGID_2_)" fill="#FFFFFF" width="7.5" height="39.1"/>
	<path clip-path="url(#SVGID_2_)" fill="#FFFFFF" d="M228.6,91.7h6.5v14.8c-2,1.5-4.5,2.8-7.3,3.7c-2.8,0.9-5.5,1.4-8.2,1.4
		c-3.8,0-7.3-0.9-10.5-2.7c-3.1-1.8-5.6-4.2-7.5-7.3c-1.8-3.1-2.7-6.5-2.7-10.2c0-3.7,0.9-7.1,2.8-10.1c1.9-3,4.4-5.4,7.6-7.2
		c3.2-1.8,6.8-2.7,10.7-2.7c2.8,0,5.5,0.5,8.3,1.5c2.7,1,5.1,2.4,7,4.1l-4.2,5.5c-1.5-1.4-3.2-2.5-5.2-3.3c-2-0.8-3.9-1.2-5.9-1.2
		c-2.5,0-4.7,0.6-6.8,1.8c-2.1,1.2-3.7,2.8-4.9,4.8c-1.2,2-1.8,4.3-1.8,6.7c0,2.5,0.6,4.7,1.8,6.8c1.2,2,2.8,3.7,4.9,4.9
		c2,1.2,4.3,1.8,6.8,1.8c1.3,0,2.7-0.2,4.2-0.6c1.5-0.4,2.9-1,4.2-1.8V91.7z"/>
	<polygon clip-path="url(#SVGID_2_)" fill="#FFFFFF" points="271.1,72 278.3,72 278.3,111.1 271.2,111.1 251.1,84.2 251.1,111.1 
		243.8,111.1 243.8,72 250.9,72 271.1,99 	"/>
	<path clip-path="url(#SVGID_2_)" fill="#FFFFFF" d="M306.3,79.2c-2.1-0.7-4-1-5.6-1c-1.8,0-3.2,0.3-4.2,1c-1,0.7-1.6,1.6-1.6,2.8
		c0,1.1,0.4,2,1.1,2.7c0.7,0.7,1.6,1.3,2.7,1.8c1.1,0.5,2.6,1,4.5,1.5c2.6,0.8,4.8,1.6,6.5,2.3c1.7,0.8,3.1,1.9,4.3,3.5
		c1.2,1.5,1.8,3.5,1.8,6c0,2.4-0.6,4.5-1.9,6.2c-1.3,1.8-3.1,3.1-5.3,4c-2.3,0.9-4.8,1.4-7.7,1.4c-3.1,0-6-0.6-8.9-1.7
		c-2.9-1.1-5.4-2.7-7.6-4.6l3.1-6.4c2,1.8,4.2,3.3,6.6,4.3c2.5,1,4.7,1.6,6.9,1.6c2.1,0,3.7-0.4,4.9-1.2c1.2-0.8,1.8-1.9,1.8-3.3
		c0-1.1-0.4-2-1.1-2.8c-0.7-0.7-1.6-1.3-2.8-1.8c-1.1-0.4-2.6-0.9-4.6-1.5c-2.6-0.8-4.8-1.5-6.5-2.3c-1.7-0.7-3.1-1.9-4.3-3.4
		c-1.2-1.5-1.8-3.5-1.8-5.9c0-2.3,0.6-4.3,1.8-5.9c1.2-1.7,2.9-3,5.1-3.9c2.2-0.9,4.8-1.4,7.7-1.4c2.5,0,5,0.4,7.5,1.1
		c2.5,0.7,4.7,1.8,6.6,3l-3,6.5C310.5,80.9,308.4,79.9,306.3,79.2"/>
</g>
<g>
	<defs>
		<polygon id="SVGID_3_" points="65.6,0 0,65.6 51,116.6 102.1,65.6 80.2,43.7 51,72.9 43.7,65.6 80.2,29.2 116.6,65.6 58.3,123.9 
			65.6,131.2 131.2,65.6 80.2,14.6 29.1,65.6 51,87.5 80.2,58.3 87.5,65.6 51,102 14.6,65.6 72.9,7.3 		"/>
	</defs>
	<clipPath id="SVGID_4_">
		<use xlink:href="#SVGID_3_"  overflow="visible"/>
	</clipPath>
	
		<linearGradient id="SVGID_5_" gradientUnits="userSpaceOnUse" x1="0" y1="131.205" x2="1" y2="131.205" gradientTransform="matrix(65.6018 -66.144 -66.144 -65.6018 8711.1504 8706.0293)">
		<stop  offset="0" style="stop-color:#0194D3"/>
		<stop  offset="1" style="stop-color:#00B495"/>
	</linearGradient>
	<polygon clip-path="url(#SVGID_4_)" fill="url(#SVGID_5_)" points="-65.6,66.1 65.1,-65.6 196.8,65.1 66.1,196.8 	"/>
</g>
</svg>
