<svg xmlns="http://www.w3.org/2000/svg" width="100" height="64" viewBox="0 0 100 64">
  <metadata><?xpacket begin="﻿" id="W5M0MpCehiHzreSzNTczkc9d"?>
<x:xmpmeta xmlns:x="adobe:ns:meta/" x:xmptk="Adobe XMP Core 5.6-c138 79.159824, 2016/09/14-01:09:01        ">
   <rdf:RDF xmlns:rdf="http://www.w3.org/1999/02/22-rdf-syntax-ns#">
      <rdf:Description rdf:about=""/>
   </rdf:RDF>
</x:xmpmeta>
                                                                                                    
                                                                                                    
                                                                                                    
                                                                                                    
                                                                                                    
                                                                                                    
                                                                                                    
                                                                                                    
                                                                                                    
                                                                                                    
                                                                                                    
                                                                                                    
                                                                                                    
                                                                                                    
                                                                                                    
                                                                                                    
                                                                                                    
                                                                                                    
                                                                                                    
                                                                                                    
                           
<?xpacket end="w"?></metadata>
<defs>
    <style>
      .cls-1 {
        fill: #1d61b3;
        fill-rule: evenodd;
      }
    </style>
  </defs>
  <path id="Forma_1" data-name="Forma 1" class="cls-1" d="M823.091,3153.49a30.748,30.748,0,0,0-44.027,3.94l3.19,2.74v0.01a27.369,27.369,0,0,1,3.336-3.42,26.656,26.656,0,0,1,38.156,3.42l3.189-2.75A32.228,32.228,0,0,0,823.091,3153.49Zm0.655,42.34a27.286,27.286,0,0,1-3.336,3.41,26.647,26.647,0,0,1-38.156-3.41l-3.189,2.74a30.776,30.776,0,0,0,47.87,0ZM812.673,3178a8.63,8.63,0,0,0,2.821-6.39,8.429,8.429,0,0,0-8.327-8.54H792.583a2.1,2.1,0,0,0-2.083,2.13v25.6a2.1,2.1,0,0,0,2.083,2.13h14.584a8.23,8.23,0,0,0,6.244-2.89A8.672,8.672,0,0,0,812.673,3178Zm-5.506,10.67h-12.5v-8.54h12.5A4.271,4.271,0,0,1,807.167,3188.67Zm0-12.8h-12.5v-8.54h12.5A4.271,4.271,0,0,1,807.167,3175.87Zm-12.5-17.07h4.166v6.4h-4.166v-6.4Zm8.333,0h4.167v6.4H803v-6.4Zm-8.333,32h4.166v6.4h-4.166v-6.4Zm8.333,0h4.167v6.4H803v-6.4Zm31.25,6.4v-17.07c0-.06,0-0.11,0-0.17a4.124,4.124,0,0,0-4.167-4.09H828v4.26h2.083v17.07q0,0.09,0,.18a4.122,4.122,0,0,0,4.167,4.08h8.333v-4.26H834.25Zm0-42.67h-0.173a4.139,4.139,0,0,0-3.994,4.27v12.8h4.167v-12.8h8.333v-4.27H834.25Zm12.5,38.4a6.4,6.4,0,1,0,6.25,6.4A6.329,6.329,0,0,0,846.75,3192.93Zm0,8.53a2.131,2.131,0,1,1,2.083-2.13A2.1,2.1,0,0,1,846.75,3201.46Zm0-29.86A6.4,6.4,0,1,0,853,3178,6.329,6.329,0,0,0,846.75,3171.6Zm0,8.53a2.131,2.131,0,1,1,2.083-2.13A2.1,2.1,0,0,1,846.75,3180.13Zm0-29.86a6.4,6.4,0,1,0,6.25,6.4A6.323,6.323,0,0,0,846.75,3150.27Zm0,8.53a2.136,2.136,0,1,1,2.083-2.13A2.1,2.1,0,0,1,846.75,3158.8Zm-10.417,17.07h6.25v4.26h-6.25v-4.26Zm-60.416,0V3158.8q0-.09,0-0.18a4.138,4.138,0,0,0-4.167-4.09h-8.333v4.27h8.333v17.07c0,0.06,0,.11,0,0.17a4.124,4.124,0,0,0,4.167,4.09H778v-4.26h-2.083Zm-4.167,8.53v12.8h-8.333v4.26h8.333a0.5,0.5,0,0,0,.173,0,4.124,4.124,0,0,0,3.994-4.26v-12.8H771.75Zm-12.5-34.13a6.4,6.4,0,1,0,6.25,6.4A6.323,6.323,0,0,0,759.25,3150.27Zm0,8.53a2.136,2.136,0,1,1,2.083-2.13A2.1,2.1,0,0,1,759.25,3158.8Zm0,12.8a6.4,6.4,0,1,0,6.25,6.4A6.329,6.329,0,0,0,759.25,3171.6Zm0,8.53a2.131,2.131,0,1,1,2.083-2.13A2.1,2.1,0,0,1,759.25,3180.13Zm0,12.8a6.4,6.4,0,1,0,6.25,6.4A6.329,6.329,0,0,0,759.25,3192.93Zm0,8.53a2.131,2.131,0,1,1,2.083-2.13A2.1,2.1,0,0,1,759.25,3201.46Zm4.167-25.59h6.25v4.26h-6.25v-4.26Zm18.75,0h4.166v4.26h-4.166v-4.26Zm37.5,0h4.166v4.26h-4.166v-4.26Zm0-8.54h4.166v4.27h-4.166v-4.27Zm0,17.07h4.166v4.27h-4.166v-4.27Zm-37.5,0h4.166v4.27h-4.166v-4.27Zm0-17.07h4.166v4.27h-4.166v-4.27Z" transform="translate(-753 -3146)"/>
</svg>
