<svg xmlns="http://www.w3.org/2000/svg" width="67" height="87" viewBox="0 0 67 87">
  <metadata><?xpacket begin="﻿" id="W5M0MpCehiHzreSzNTczkc9d"?>
<x:xmpmeta xmlns:x="adobe:ns:meta/" x:xmptk="Adobe XMP Core 5.6-c138 79.159824, 2016/09/14-01:09:01        ">
   <rdf:RDF xmlns:rdf="http://www.w3.org/1999/02/22-rdf-syntax-ns#">
      <rdf:Description rdf:about=""/>
   </rdf:RDF>
</x:xmpmeta>
                                                                                                    
                                                                                                    
                                                                                                    
                                                                                                    
                                                                                                    
                                                                                                    
                                                                                                    
                                                                                                    
                                                                                                    
                                                                                                    
                                                                                                    
                                                                                                    
                                                                                                    
                                                                                                    
                                                                                                    
                                                                                                    
                                                                                                    
                                                                                                    
                                                                                                    
                                                                                                    
                           
<?xpacket end="w"?></metadata>
<defs>
    <style>
      .cls-1 {
        fill: #1d61b3;
        fill-rule: evenodd;
      }
    </style>
  </defs>
  <path id="icon" class="cls-1" d="M487.5,3134a33.424,33.424,0,0,0-33.5,33.35V3221h2.913v-53.65a30.587,30.587,0,0,1,61.174,0V3221H521v-53.65A33.425,33.425,0,0,0,487.5,3134Zm26.4,57.4a29.374,29.374,0,0,1-2.386,3.48l2.288,1.8a33.439,33.439,0,0,0,2.613-3.81Zm0.332,17.19a42.409,42.409,0,0,1-53.387.11L459,3210.94a45.326,45.326,0,0,0,57.083-.11Zm-1.156-6.75a36.516,36.516,0,0,1-51.475-.31q-0.309-.315-0.611-0.63l-2.125,1.98a39.416,39.416,0,0,0,56.25,1.02Zm-4.093-4.13a30.6,30.6,0,0,1-47.589-5.82l-2.476,1.52a33.551,33.551,0,0,0,52.1,6.37ZM487.5,3139.8a27.609,27.609,0,0,0-27.674,27.55v8.7a27.688,27.688,0,0,0,47.1,19.6l-2.039-2.07a24.748,24.748,0,0,1-42.153-17.53v-8.7a24.761,24.761,0,0,1,49.522,0v8.7a24.3,24.3,0,0,1-5.318,15.24l2.287,1.8a27.15,27.15,0,0,0,5.944-17.04v-8.7A27.609,27.609,0,0,0,487.5,3139.8Zm-10.935,8.73a21.744,21.744,0,0,0-10.913,18.82v8.7h2.913v-8.7a18.951,18.951,0,0,1,35.33-9.43l2.519-1.45A21.9,21.9,0,0,0,476.565,3148.53Zm-7.811,30.21-2.885.41a21.741,21.741,0,0,0,12.265,16.55l1.253-2.62A18.842,18.842,0,0,1,468.754,3178.74Zm39.153-19.16-2.719,1.04a18.673,18.673,0,0,1,1.247,6.73v8.7a18.944,18.944,0,0,1-24.324,18.07l-0.832,2.78a21.861,21.861,0,0,0,27.164-14.66,21.58,21.58,0,0,0,.905-6.19v-8.7A21.517,21.517,0,0,0,507.907,3159.58ZM487.5,3151.4a15.868,15.868,0,0,0-9.613,3.2l1.748,2.32a13.111,13.111,0,0,1,20.974,10.43v8.7a13.109,13.109,0,0,1-26.218,0v-8.7a12.855,12.855,0,0,1,2.622-7.83l-2.33-1.74a15.753,15.753,0,0,0-3.2,9.57v8.7a16.022,16.022,0,0,0,32.044,0v-8.7A16,16,0,0,0,487.5,3151.4Zm8.565,23.26a9.436,9.436,0,0,1-1.221-11.08,5.793,5.793,0,0,0-2.975-1.83v-3.1h-2.913v2.9h-2.913v-2.9H483.13v2.9h-2.913v2.9h1.457v14.5h-1.457v2.9h2.913v2.9h2.913v-2.9h2.913v2.9h2.913v-3.11A5.747,5.747,0,0,0,496.065,3174.66Zm-5.652,4.29h-5.826v-5.8h5.826A2.9,2.9,0,1,1,490.413,3178.95Zm0-8.7h-5.826v-5.8h5.826A2.9,2.9,0,1,1,490.413,3170.25Z" transform="translate(-454 -3134)"/>
</svg>
