<svg xmlns="http://www.w3.org/2000/svg" width="93" height="93" viewBox="0 0 93 93">
  <metadata><?xpacket begin="﻿" id="W5M0MpCehiHzreSzNTczkc9d"?>
<x:xmpmeta xmlns:x="adobe:ns:meta/" x:xmptk="Adobe XMP Core 5.6-c138 79.159824, 2016/09/14-01:09:01        ">
   <rdf:RDF xmlns:rdf="http://www.w3.org/1999/02/22-rdf-syntax-ns#">
      <rdf:Description rdf:about=""/>
   </rdf:RDF>
</x:xmpmeta>
                                                                                                    
                                                                                                    
                                                                                                    
                                                                                                    
                                                                                                    
                                                                                                    
                                                                                                    
                                                                                                    
                                                                                                    
                                                                                                    
                                                                                                    
                                                                                                    
                                                                                                    
                                                                                                    
                                                                                                    
                                                                                                    
                                                                                                    
                                                                                                    
                                                                                                    
                                                                                                    
                           
<?xpacket end="w"?></metadata>
<defs>
    <style>
      .cls-1 {
        fill: #1d61b3;
        fill-rule: evenodd;
      }
    </style>
  </defs>
  <path id="icon" class="cls-1" d="M1128.35,3385.6a4.576,4.576,0,0,1,0-6.2v-3.1a4.648,4.648,0,0,0-4.65-4.65h-3.1v-3.1h-3.1v3.1h-3.1v-3.1h-3.1v3.1h-3.1v3.1h1.55v15.5h-1.55v3.1h3.1v3.1h3.1v-3.1h3.1v3.1h3.1v-3.1h3.1a4.648,4.648,0,0,0,4.65-4.65v-3.1Zm-3.1,3.1a1.545,1.545,0,0,1-1.55,1.55h-10.85v-6.2h10.85a1.545,1.545,0,0,1,1.55,1.55v3.1Zm0-9.3a1.545,1.545,0,0,1-1.55,1.55h-10.85v-6.2h10.85a1.545,1.545,0,0,1,1.55,1.55v3.1Zm-7.75-24.8a27.9,27.9,0,1,0,27.9,27.9A27.9,27.9,0,0,0,1117.5,3354.6Zm0,52.7a24.8,24.8,0,1,1,24.8-24.8A24.8,24.8,0,0,1,1117.5,3407.3Zm-15.08-35.7-2.51-1.81a21.8,21.8,0,0,0-2.48,4.45l2.87,1.19A18.591,18.591,0,0,1,1102.42,3371.6Zm2.35,28.47a21.578,21.578,0,0,0,4.45,2.49l1.18-2.86a18.524,18.524,0,0,1-3.81-2.14Zm15.66,0.8,0.48,3.06a21.354,21.354,0,0,0,4.91-1.39l-1.19-2.86A18.129,18.129,0,0,1,1120.43,3400.87Zm-21.3-15.43-3.06.49a22.016,22.016,0,0,0,1.39,4.91l2.87-1.19A18.092,18.092,0,0,1,1099.13,3385.44Zm14.05,15.16-0.72,3.01a21.9,21.9,0,0,0,5.04.59h0.02l-0.02-3.1A18.962,18.962,0,0,1,1113.18,3400.6Zm-13.78-22.41-3.02-.71a21.788,21.788,0,0,0-.58,5.02v0.04l3.1-.04A19.006,19.006,0,0,1,1099.4,3378.19Zm-0.39,15.68a22.223,22.223,0,0,0,3.17,4l2.19-2.2a18.673,18.673,0,0,1-2.72-3.42Zm8.72-27.21-1.62-2.63a21.79,21.79,0,0,0-4,3.17l2.2,2.18A19.108,19.108,0,0,1,1107.73,3366.66Zm22.47-1.76a21.873,21.873,0,0,0-4.46-2.48l-1.18,2.87a18.516,18.516,0,0,1,3.82,2.12Zm-2.97,33.46,1.62,2.63a21.706,21.706,0,0,0,3.99-3.15l-2.19-2.19A19.054,19.054,0,0,1,1127.23,3398.36Zm8.63-18.85,3.06-.49a22.168,22.168,0,0,0-1.39-4.91l-2.86,1.2A18.635,18.635,0,0,1,1135.86,3379.51Zm-14.07-15.11,0.71-3.02a21.617,21.617,0,0,0-5-.58h-0.06l0.06,3.1A18.833,18.833,0,0,1,1121.79,3364.4Zm14.17,6.69a21.811,21.811,0,0,0-3.17-3.99l-2.18,2.2a19.108,19.108,0,0,1,2.72,3.42Zm-3.41,22.34,2.51,1.82a21.578,21.578,0,0,0,2.49-4.45l-2.86-1.19A18.864,18.864,0,0,1,1132.55,3393.43Zm5.89-10.99-2.34.06a18.657,18.657,0,0,1-.51,4.34l3.02,0.72a22.421,22.421,0,0,0,.59-5.1Zm-23.91-18.31-0.49-3.06a21.439,21.439,0,0,0-4.9,1.4l1.19,2.86A18.659,18.659,0,0,1,1114.53,3364.13Zm1.42-21.93h3.1v3.1h-3.1v-3.1Zm0,6.2h3.1v3.1h-3.1v-3.1Zm0-12.4h3.1v3.1h-3.1V3336Zm-23.66,19.1-2.19,2.19-2.19-2.19,2.19-2.19Zm4.38,4.38-2.19,2.19-2.19-2.19,2.19-2.19Zm-10.95-10.96,2.19,2.19-2.19,2.2-2.2-2.2Zm-8.52,32.43h3.1v3.1h-3.1v-3.1Zm6.2,0h3.1v3.1h-3.1v-3.1Zm-12.4,0h3.1v3.1H1071v-3.1Zm19.1,31.14-2.19-2.19,2.19-2.19,2.19,2.19Zm4.39-4.38-2.19-2.19,2.19-2.2,2.19,2.2Zm-8.77,8.77-2.19-2.19,2.19-2.19,2.19,2.19Zm30.23,3.22h3.1v3.1h-3.1v-3.1Zm0-6.2h3.1v3.1h-3.1v-3.1Zm0,12.4h3.1v3.1h-3.1v-3.1Zm28.95-13.81-2.19-2.19,2.19-2.19,2.19,2.19Zm-4.38-4.38-2.2-2.19,2.2-2.2,2.19,2.2Zm8.77,8.77-2.19-2.19,2.19-2.19,2.2,2.19Zm5.41-35.53h3.1v3.1h-3.1v-3.1Zm-6.2,0h3.1v3.1h-3.1v-3.1Zm12.4,0h3.1v3.1h-3.1v-3.1Zm-16-28.05,2.19,2.19-2.19,2.2-2.19-2.2Zm-4.39,4.39,2.2,2.19-2.2,2.19-2.19-2.19Zm8.78-8.77,2.19,2.19-2.19,2.19-2.19-2.19Z" transform="translate(-1071 -3336)"/>
</svg>
