<svg xmlns="http://www.w3.org/2000/svg" width="64" height="60" viewBox="0 0 64 60">
  <metadata><?xpacket begin="﻿" id="W5M0MpCehiHzreSzNTczkc9d"?>
<x:xmpmeta xmlns:x="adobe:ns:meta/" x:xmptk="Adobe XMP Core 5.6-c138 79.159824, 2016/09/14-01:09:01        ">
   <rdf:RDF xmlns:rdf="http://www.w3.org/1999/02/22-rdf-syntax-ns#">
      <rdf:Description rdf:about=""/>
   </rdf:RDF>
</x:xmpmeta>
                                                                                                    
                                                                                                    
                                                                                                    
                                                                                                    
                                                                                                    
                                                                                                    
                                                                                                    
                                                                                                    
                                                                                                    
                                                                                                    
                                                                                                    
                                                                                                    
                                                                                                    
                                                                                                    
                                                                                                    
                                                                                                    
                                                                                                    
                                                                                                    
                                                                                                    
                                                                                                    
                           
<?xpacket end="w"?></metadata>
<defs>
    <style>
      .cls-1 {
        fill: #1d61b3;
        fill-rule: evenodd;
      }
    </style>
  </defs>
  <path id="_1" data-name="1" class="cls-1" d="M562,5130h-8v-2a2,2,0,0,0-4,0v2H530v-2a2,2,0,0,0-4,0v2h-8a9.9,9.9,0,0,0-10,10v36a9.9,9.9,0,0,0,10,10h44a9.9,9.9,0,0,0,10-10v-36A9.9,9.9,0,0,0,562,5130Zm-50,10a6.152,6.152,0,0,1,6-6h8v2a2,2,0,0,0,4,0v-2h20v2a2,2,0,0,0,4,0v-2h8a6.152,6.152,0,0,1,6,6v6H512v-6Zm56,36a6.152,6.152,0,0,1-6,6H518a6.152,6.152,0,0,1-6-6v-26h56v26Zm-46,0a3.631,3.631,0,0,0,2.8-1.2,3.867,3.867,0,0,0,0-5.6,3.867,3.867,0,0,0-5.6,0,3.631,3.631,0,0,0-1.2,2.8,4.321,4.321,0,0,0,1.2,2.8A3.631,3.631,0,0,0,522,5176Zm0-12a3.631,3.631,0,0,0,2.8-1.2,3.867,3.867,0,0,0,0-5.6,3.867,3.867,0,0,0-5.6,0A4,4,0,0,0,522,5164Zm12,12a3.631,3.631,0,0,0,2.8-1.2,3.867,3.867,0,0,0,0-5.6,3.867,3.867,0,0,0-5.6,0,3.867,3.867,0,0,0,0,5.6A3.631,3.631,0,0,0,534,5176Zm0-12a3.631,3.631,0,0,0,2.8-1.2,3.867,3.867,0,0,0,0-5.6,3.867,3.867,0,0,0-5.6,0,3.867,3.867,0,0,0,0,5.6A3.631,3.631,0,0,0,534,5164Zm12,12a3.96,3.96,0,0,0,2.8-6.8,3.867,3.867,0,0,0-5.6,0,3.867,3.867,0,0,0,0,5.6A3.631,3.631,0,0,0,546,5176Zm0-12a4.1,4.1,0,0,0,4-4,4.321,4.321,0,0,0-1.2-2.8,3.867,3.867,0,0,0-5.6,0,3.867,3.867,0,0,0,0,5.6A3.631,3.631,0,0,0,546,5164Zm12,12a3.631,3.631,0,0,0,2.8-1.2,3.867,3.867,0,0,0,0-5.6,3.867,3.867,0,0,0-5.6,0,3.631,3.631,0,0,0-1.2,2.8,4.321,4.321,0,0,0,1.2,2.8A3.631,3.631,0,0,0,558,5176Zm0-12a4.1,4.1,0,0,0,4-4,4.321,4.321,0,0,0-1.2-2.8,3.867,3.867,0,0,0-5.6,0,3.867,3.867,0,0,0,0,5.6A3.631,3.631,0,0,0,558,5164Z" transform="translate(-508 -5126)"/>
</svg>
