<svg xmlns="http://www.w3.org/2000/svg" width="66" height="87" viewBox="0 0 66 87">
  <metadata><?xpacket begin="﻿" id="W5M0MpCehiHzreSzNTczkc9d"?>
<x:xmpmeta xmlns:x="adobe:ns:meta/" x:xmptk="Adobe XMP Core 5.6-c138 79.159824, 2016/09/14-01:09:01        ">
   <rdf:RDF xmlns:rdf="http://www.w3.org/1999/02/22-rdf-syntax-ns#">
      <rdf:Description rdf:about=""/>
   </rdf:RDF>
</x:xmpmeta>
                                                                                                    
                                                                                                    
                                                                                                    
                                                                                                    
                                                                                                    
                                                                                                    
                                                                                                    
                                                                                                    
                                                                                                    
                                                                                                    
                                                                                                    
                                                                                                    
                                                                                                    
                                                                                                    
                                                                                                    
                                                                                                    
                                                                                                    
                                                                                                    
                                                                                                    
                                                                                                    
                           
<?xpacket end="w"?></metadata>
<defs>
    <style>
      .cls-1 {
        fill: #1d61b3;
        fill-rule: evenodd;
      }
    </style>
  </defs>
  <path id="contract" class="cls-1" d="M1133.16,3169.48a1.906,1.906,0,0,1-1.92,1.91h-32.72a1.91,1.91,0,1,1,0-3.82h32.61A1.866,1.866,0,0,1,1133.16,3169.48Zm-37.21-11.89v-8.61a3.209,3.209,0,0,1,3.21-3.19h31a3.211,3.211,0,0,1,3.22,3.19v8.61a3.211,3.211,0,0,1-3.22,3.19h-31A3.147,3.147,0,0,1,1095.95,3157.59Zm3.96-.75h29.5v-7.12h-29.5v7.12h0Zm46.45,44.41-0.11,16.15c0,3.29-2.25,3.5-2.68,3.5a3.221,3.221,0,0,1-2.03-.75l-5.37-4.46-5.14,4.25a4.079,4.079,0,0,1-2.37,1.06,2.647,2.647,0,0,1-2.57-2.55v-3.39h-35.84a5.235,5.235,0,0,1-5.25-5.21V3139.2a5.232,5.232,0,0,1,5.25-5.2h49.89a5.232,5.232,0,0,1,5.25,5.2v39.84a13.377,13.377,0,0,1,3.86,4.57A14.674,14.674,0,0,1,1146.36,3201.25Zm-0.64-15.72a10.88,10.88,0,0,0-3.65-3.94,5.73,5.73,0,0,1-.85-0.53c-0.11,0-.22-0.11-0.32-0.11-0.43-.21-0.75-0.31-1.18-0.53h-0.11a10.683,10.683,0,0,0-7.08.11h-0.11a7.029,7.029,0,0,0-1.29.64,10.622,10.622,0,0,0-5.68,9.45h0a11.055,11.055,0,0,0,1.29,5.1,6.74,6.74,0,0,0,.75,1.17c0.11,0.11.11,0.22,0.22,0.31a5.009,5.009,0,0,0,.65.75c0.1,0.11.1,0.11,0.21,0.22a6.6,6.6,0,0,0,.97.84l0.11,0.11c0.31,0.22.53,0.42,0.85,0.64l0.11,0.11c0.11,0,.11.11,0.22,0.11s0.22,0.11.32,0.11c0.11,0.1.31,0.1,0.42,0.21a11.372,11.372,0,0,0,7.94.64c0.11,0,.32-0.11.43-0.11a0.22,0.22,0,0,0,.22-0.11c0.1,0,.21-0.1.31-0.1,0.32-.11.65-0.32,0.97-0.43a5.44,5.44,0,0,0,.85-0.53c0.32-.21.54-0.42,0.85-0.64A10.81,10.81,0,0,0,1145.72,3185.53Zm-19.63,25.39v-7.55h-27.57a1.91,1.91,0,1,1,0-3.82h25.85a2.37,2.37,0,0,0-.42-0.53,0.546,0.546,0,0,1-.22-0.31,6.289,6.289,0,0,1-.54-0.85l-0.11-.11a13.684,13.684,0,0,1-.64-1.37h0a20.882,20.882,0,0,1-.97-3.51h-22.95a1.905,1.905,0,1,1,0-3.81h22.95a17.676,17.676,0,0,1,.43-2.24,15.6,15.6,0,0,1,2.25-4.35h-25.63a1.91,1.91,0,1,1,0-3.82h29.92a2.649,2.649,0,0,0,.65-0.42,14.148,14.148,0,0,1,1.39-.64h0.11a14,14,0,0,1,5.58-1.06,13.781,13.781,0,0,1,5.15.95h0V3139.2a1.242,1.242,0,0,0-1.29-1.28h-49.78a1.242,1.242,0,0,0-1.29,1.28v70.34a1.237,1.237,0,0,0,1.29,1.28h35.83v0.1h0.01Zm16.3-6.91a0.22,0.22,0,0,0-.22.11,0.108,0.108,0,0,0-.11.11h-0.11c-0.22.1-.42,0.1-0.64,0.21a0.22,0.22,0,0,0-.22.11c-0.11,0-.22.11-0.32,0.11h-0.22a0.22,0.22,0,0,0-.22.11h-0.11a0.365,0.365,0,0,0-.31.11,4.914,4.914,0,0,1-.54.1c-0.11,0-.32.11-0.43,0.11h0c-0.21,0-.42.11-0.75,0.11a0.635,0.635,0,0,0-.43.11h-1.84a3.577,3.577,0,0,1-1.07-.11h-0.22a12.319,12.319,0,0,1-3.97-1.06h0c-0.11-.11-0.32-0.11-0.43-0.22h0l-0.11,11.58,4.83-4.03a2.15,2.15,0,0,1,2.58,0l4.83,4.03Z" transform="translate(-1085 -3134)"/>
</svg>
