<svg xmlns="http://www.w3.org/2000/svg" width="97" height="86.97" viewBox="0 0 97 86.97">
  <metadata><?xpacket begin="﻿" id="W5M0MpCehiHzreSzNTczkc9d"?>
<x:xmpmeta xmlns:x="adobe:ns:meta/" x:xmptk="Adobe XMP Core 5.6-c138 79.159824, 2016/09/14-01:09:01        ">
   <rdf:RDF xmlns:rdf="http://www.w3.org/1999/02/22-rdf-syntax-ns#">
      <rdf:Description rdf:about=""/>
   </rdf:RDF>
</x:xmpmeta>
                                                                                                    
                                                                                                    
                                                                                                    
                                                                                                    
                                                                                                    
                                                                                                    
                                                                                                    
                                                                                                    
                                                                                                    
                                                                                                    
                                                                                                    
                                                                                                    
                                                                                                    
                                                                                                    
                                                                                                    
                                                                                                    
                                                                                                    
                                                                                                    
                                                                                                    
                                                                                                    
                           
<?xpacket end="w"?></metadata>
<defs>
    <style>
      .cls-1 {
        fill: #1d61b3;
        fill-rule: evenodd;
      }
    </style>
  </defs>
  <path id="icon" class="cls-1" d="M1479.37,3191.98a16.1,16.1,0,0,0-6.95-4.16h0a36.649,36.649,0,0,0-19.17-36.45,17.754,17.754,0,0,0-35.5,0,36.665,36.665,0,0,0-19.17,36.45,16.118,16.118,0,1,0,9.15,30.91,16.3,16.3,0,0,0,6.95-4.16,37.057,37.057,0,0,0,41.65,0A16.133,16.133,0,0,0,1479.37,3191.98Zm-43.87-54.8a14.538,14.538,0,0,1,14.54,14.5c0,0.18,0,.36-0.02.58a14.534,14.534,0,0,1-29.04-.05c-0.01-.17-0.01-0.35-0.01-0.53A14.53,14.53,0,0,1,1435.5,3137.18Zm-32.3,78.97a12.9,12.9,0,1,1,12.92-12.9A12.91,12.91,0,0,1,1403.2,3216.15Zm32.3,1.61a33.6,33.6,0,0,1-18.79-5.7,16.05,16.05,0,0,0-4.62-22.25,16.431,16.431,0,0,0-1.97-1.09c-0.14-.74-0.26-1.49-0.33-2.23l-3.22.32c0.03,0.24.07,0.49,0.1,0.72a15.644,15.644,0,0,0-3.47-.39c-0.49,0-.96.03-1.43,0.07-0.11-1.1-.19-2.2-0.19-3.3a33.691,33.691,0,0,1,16.47-29.02,17.355,17.355,0,0,0,1.58,4.75c-0.28.18-.56,0.34-0.83,0.53l1.85,2.63c0.22-.15.45-0.28,0.68-0.43a17.8,17.8,0,0,0,24.91,3.43,17.315,17.315,0,0,0,3.43-3.41c0.43,0.28.87,0.54,1.27,0.84l1.94-2.58c-0.48-.36-0.97-0.7-1.48-1.03a17.543,17.543,0,0,0,1.57-4.73,33.694,33.694,0,0,1,16.45,29.02c0,1.1-.07,2.2-0.18,3.3-0.47-.04-0.95-0.07-1.43-0.07a15.6,15.6,0,0,0-3.73.45l-2.95-.38c-0.06.5-.16,1.01-0.26,1.51a16.124,16.124,0,0,0-9.22,14.53c0,0.25.03,0.5,0.04,0.75-0.59.47-1.19,0.93-1.8,1.34l1.8,2.67c0.19-.13.38-0.27,0.58-0.41a15.9,15.9,0,0,0,2.02,4.46A33.579,33.579,0,0,1,1435.5,3217.76Zm32.31-1.61a12.9,12.9,0,1,1,12.92-12.9A12.919,12.919,0,0,1,1467.81,3216.15Zm1.61-6.45a6.458,6.458,0,0,1-4.23-1.61h5.85v-3.23h-7.85a6.2,6.2,0,0,1-.23-1.61h8.08v-3.22h-7.18a6.435,6.435,0,0,1,8.07-2.72l1.26-2.96a9.689,9.689,0,0,0-12.69,5.15c-0.07.18-.14,0.35-0.2,0.53h-2.19v3.22h1.62a8.691,8.691,0,0,0,.15,1.61h-1.77v3.23h2.93a9.7,9.7,0,0,0,12.26,4.03l-1.29-2.96A6.431,6.431,0,0,1,1469.42,3209.7Zm-61.6-9.67a4.813,4.813,0,0,0-3.01-4.51v-1.94h-3.23v1.94a4.819,4.819,0,0,0-3,4.51,4.726,4.726,0,0,0,4.62,4.83,1.633,1.633,0,0,1,0,3.23,1.514,1.514,0,0,1-1.39-1.61h-3.23a4.829,4.829,0,0,0,3,4.51v1.93h3.23v-1.93a4.823,4.823,0,0,0,3.01-4.51,4.741,4.741,0,0,0-4.62-4.84,1.626,1.626,0,0,1,0-3.22,1.5,1.5,0,0,1,1.39,1.61h3.23Zm-14.31,1.61h3.23v3.22h-3.23v-3.22Zm16.15,0h3.23v3.22h-3.23v-3.22Zm19.38-38.68h3.23v-3.22h1.62v3.22h3.23v-3.22h1.61a4.833,4.833,0,0,0,4.85-4.81,4.408,4.408,0,0,0-.1-0.96,2.8,2.8,0,0,0-.09-0.31,3.428,3.428,0,0,0-.17-0.57c-0.05-.12-0.12-0.22-0.17-0.34a5.2,5.2,0,0,0-.25-0.46,3.553,3.553,0,0,0-.23-0.31,3.4,3.4,0,0,0-.23-0.3,3.655,3.655,0,0,0,.24-0.31,3.553,3.553,0,0,0,.23-0.31,4.309,4.309,0,0,0,.26-0.47c0.05-.11.12-0.22,0.16-0.33q0.105-.285.18-0.57c0.02-.1.06-0.2,0.08-0.31a4.7,4.7,0,0,0,.09-0.92,4.846,4.846,0,0,0-4.85-4.84h-1.61v-3.22h-3.23v3.22h-1.62v-3.22h-3.23v3.22h-1.61v16.12h1.61v3.22h0Zm1.62-16.11h8.07a1.618,1.618,0,0,1,1.62,1.61,1.639,1.639,0,0,1-1.62,1.61h-8.07v-3.22h0Zm0,6.44h8.07a1.626,1.626,0,0,1,1.62,1.62,1.544,1.544,0,0,1-.5,1.14,1.565,1.565,0,0,1-1.12.47h-8.07v-3.23h0Zm40.38,12.9h3.23a6.455,6.455,0,0,1,6.46-6.45v-3.22a6.455,6.455,0,0,1-6.46-6.45h-3.23a6.461,6.461,0,0,1-6.46,6.45v3.22A6.461,6.461,0,0,1,1471.04,3166.19Zm1.61-10.78a2.72,2.72,0,1,1,0,5.44l-0.01-.02a9.979,9.979,0,0,0-2.69-2.69l-0.02-.01A9.783,9.783,0,0,0,1472.65,3155.41Zm-72.68,1.11h3.23a6.455,6.455,0,0,1,6.46-6.45v-3.22a6.455,6.455,0,0,1-6.46-6.45h-3.23a6.461,6.461,0,0,1-6.46,6.45v3.22A6.461,6.461,0,0,1,1399.97,3156.52Zm1.61-10.78a2.72,2.72,0,1,1,0,5.44l-0.01-.02a9.979,9.979,0,0,0-2.69-2.69l-0.02-.01A9.783,9.783,0,0,0,1401.58,3145.74Zm53.77,21.66,2.48-2.06a27.56,27.56,0,0,0-2.34-2.49l-2.22,2.34A25.529,25.529,0,0,1,1455.35,3167.4Zm3.32,5.07,2.89-1.43a28.933,28.933,0,0,0-1.69-2.96l-2.71,1.77A26.164,26.164,0,0,1,1458.67,3172.47Zm2.03,5.7,3.15-.72a28.492,28.492,0,0,0-.96-3.27l-3.04,1.08A26.25,26.25,0,0,1,1460.7,3178.17Zm0.65,5.74v0.27l3.23,0.05v-0.32a28.941,28.941,0,0,0-.17-3.09l-3.21.34A25.2,25.2,0,0,1,1461.35,3183.91Zm-54.92-.51,3.23,0.06a25.417,25.417,0,0,1,.23-3.02l-3.2-.44A27.641,27.641,0,0,0,1406.43,3183.4Zm0.92-6.75,3.12,0.81a29.453,29.453,0,0,1,.93-2.89l-3-1.16A26.6,26.6,0,0,0,1407.35,3176.65Zm2.47-6.35,2.85,1.52a26.332,26.332,0,0,1,1.58-2.59l-2.65-1.84A31.018,31.018,0,0,0,1409.82,3170.3Zm3.89-5.59,2.43,2.13a27.125,27.125,0,0,1,2.14-2.15l-2.16-2.4A30.572,30.572,0,0,0,1413.71,3164.71Zm11.81,46.46a28.746,28.746,0,0,0,3.28.98l0.74-3.14a24.346,24.346,0,0,1-2.91-.87Zm7.01-1.63-0.37,3.2a29.138,29.138,0,0,0,3.23.18h0.18l-0.07-3.22A26.867,26.867,0,0,1,1432.53,3209.54Zm6.07-.02,0.38,3.2a29.363,29.363,0,0,0,3.37-.61l-0.76-3.13A25.32,25.32,0,0,1,1438.6,3209.52Zm-19.17-1.43a27.923,27.923,0,0,0,2.95,1.71l1.45-2.87a27.678,27.678,0,0,1-2.63-1.53Zm25.06,0,1.12,3.02a27.357,27.357,0,0,0,3.14-1.37l-1.48-2.87A25.451,25.451,0,0,1,1444.49,3208.09Z" transform="translate(-1387 -3134)"/>
</svg>
