<svg xmlns="http://www.w3.org/2000/svg" width="44" height="39" viewBox="0 0 44 39">
  <metadata><?xpacket begin="﻿" id="W5M0MpCehiHzreSzNTczkc9d"?>
<x:xmpmeta xmlns:x="adobe:ns:meta/" x:xmptk="Adobe XMP Core 5.6-c138 79.159824, 2016/09/14-01:09:01        ">
   <rdf:RDF xmlns:rdf="http://www.w3.org/1999/02/22-rdf-syntax-ns#">
      <rdf:Description rdf:about=""/>
   </rdf:RDF>
</x:xmpmeta>
                                                                                                    
                                                                                                    
                                                                                                    
                                                                                                    
                                                                                                    
                                                                                                    
                                                                                                    
                                                                                                    
                                                                                                    
                                                                                                    
                                                                                                    
                                                                                                    
                                                                                                    
                                                                                                    
                                                                                                    
                                                                                                    
                                                                                                    
                                                                                                    
                                                                                                    
                                                                                                    
                           
<?xpacket end="w"?></metadata>
<defs>
    <style>
      .cls-1 {
        fill: #f6f9fb;
        fill-rule: evenodd;
      }
    </style>
  </defs>
  <path id="icon" class="cls-1" d="M981.992,7537c-0.073-1.24-1.565-2.2-4.55-2.94a1.6,1.6,0,0,0,.158-0.67v-5.06h-0.012c-0.263-4.21-17.776-4.33-19.788-4.33s-19.525.12-19.788,4.33H938v0.1h0v4.96c0,1.37,1.8,2.44,4.477,3.24a1.511,1.511,0,0,0-.066.37H942.4v0.09h0v4.96c-2.882.73-4.322,1.68-4.393,2.89H938v0.1h0V7550c0,0.95.877,1.76,2.308,2.44a1.614,1.614,0,0,0-.1.45H940.2v0.09h0v4.96c0.006,2.41,5.5,3.9,11.6,4.59a0.61,0.61,0,0,0,.133.03c0.014,0,.026-0.01.04-0.01,1.176,0.13,2.371.24,3.554,0.31,0.025,0,.047.01,0.073,0.01a0.054,0.054,0,0,0,.038-0.01c1.5,0.09,2.98.14,4.362,0.14s2.86-.05,4.362-0.14c0.013,0,.025.01,0.038,0.01s0.048-.01.073-0.01c1.182-.08,2.378-0.18,3.554-0.31,0.014,0,.026.01,0.04,0.01a0.61,0.61,0,0,0,.133-0.03c6.1-.69,11.593-2.19,11.6-4.59v-5.05h-0.012c-0.051-.89-0.817-1.63-2.331-2.24a1.622,1.622,0,0,0,.143-0.65v-4.72c2.633-.8,4.4-1.87,4.4-3.23V7537h-0.008Zm-5.938,13.23-0.25.22a6.591,6.591,0,0,1-1.871.99V7548a11.246,11.246,0,0,0,2.2-.99v2.98A0.447,0.447,0,0,1,976.054,7550.23Zm-16.4,3.36H959.33c-0.262.01-.53,0.01-0.8,0.01v-3.61h0.605c0.039,0,.078-0.01.117-0.01,0.738-.01,1.477-0.03,2.211-0.07v3.61c-0.157.01-.314,0.02-0.473,0.02C960.552,7553.56,960.106,7553.58,959.652,7553.59Zm-3.2.01-1-.03h-0.123c-0.4-.01-0.8-0.03-1.19-0.05v-3.6q1.1,0.045,2.212.06a0.455,0.455,0,0,0,.116.01c0.2,0,.4,0,0.605.01v3.61c-0.143-.01-0.285-0.01-0.426-0.01H956.45Zm-13.246-1.65c-0.024-.01-0.046-0.01-0.071-0.02v-3.49c0.685,0.18,1.421.35,2.2,0.5v3.53c-0.673-.14-1.294-0.29-1.859-0.44C943.384,7552,943.292,7551.98,943.2,7551.95Zm15.458,5.98c0.2,0.01.4,0.01,0.605,0.01v3.61c-1.014-.01-1.992-0.04-2.934-0.08v-3.61c0.735,0.03,1.474.06,2.212,0.07h0.117Zm2.793,0c0.738-.01,1.477-0.04,2.212-0.07v3.61c-0.942.04-1.92,0.07-2.934,0.08v-3.61c0.2,0,.4-0.01.605-0.01h0.117Zm5.878-.33v3.59c-0.7.07-1.438,0.14-2.2,0.19v-3.6C965.877,7557.73,966.612,7557.67,967.333,7557.6Zm1.467-.15c0.756-.09,1.49-0.19,2.2-0.31v3.55q-1.037.18-2.2,0.33v-3.57Zm3.667-.57c0.778-.15,1.515-0.31,2.2-0.49v3.48c-0.654.19-1.389,0.37-2.2,0.54v-3.53Zm-24.934,0v3.53c-0.811-.17-1.546-0.35-2.2-0.54v-3.48C946.018,7556.57,946.754,7556.73,947.533,7556.88Zm1.467,0.26c0.71,0.12,1.444.22,2.2,0.31v3.57q-1.163-.15-2.2-0.33v-3.55Zm3.667,0.46c0.721,0.07,1.456.13,2.2,0.18v3.6c-0.762-.05-1.5-0.12-2.2-0.19v-3.59Zm-1.82-4.32a1.665,1.665,0,0,1-.223-0.02c-0.053,0-.105-0.01-0.157-0.01v-3.59c0.721,0.07,1.456.13,2.2,0.17v3.6C952.051,7553.39,951.442,7553.34,950.847,7553.28ZM949,7549.5v3.57q-1.162-.15-2.2-0.33v-3.54Q947.865,7549.365,949,7549.5Zm14.422,3.9c-0.162.01-.324,0.02-0.489,0.04v-3.61c0.744-.04,1.479-0.1,2.2-0.17v3.59c-0.453.04-.916,0.09-1.392,0.12Zm3.178-.33v-3.57q1.134-.135,2.2-0.3v3.54C968.109,7552.86,967.375,7552.98,966.6,7553.07Zm3.667-4.13c0.778-.15,1.515-0.32,2.2-0.5v3.49c-0.654.19-1.389,0.37-2.2,0.54v-3.53Zm-10.029-3.3c-0.551-.01-1.09-0.03-1.62-0.06h-0.085v-3.61c0.735,0.03,1.474.06,2.212,0.07h0.116c0.2,0.01.4,0.01,0.605,0.01v3.61c-0.357-.01-0.717-0.01-1.066-0.02h-0.162Zm-17.105-10.32v-3.49c0.685,0.18,1.421.35,2.2,0.5v3.53l-0.271-.06c-0.39-.09-0.771-0.17-1.135-0.27C943.65,7535.46,943.387,7535.39,943.133,7535.32Zm13.329-1.94h0.605v3.61c-0.987-.01-1.969-0.03-2.934-0.08v-3.6q1.1,0.045,2.212.06C956.384,7533.37,956.423,7533.38,956.462,7533.38Zm2.793-.01c0.738-.01,1.477-0.03,2.212-0.07v3.61c-0.125,0-.245.01-0.37,0.02h-0.032c-0.492.02-.993,0.04-1.5,0.05h-0.238c-0.261.01-.528,0.01-0.793,0.01v-3.61h0.605C959.177,7533.38,959.216,7533.37,959.255,7533.37Zm16.71,0.37-0.02-.01-0.267.21a7.428,7.428,0,0,1-1.745.88v-3.43a10.671,10.671,0,0,0,2.2-1v2.99A0.586,0.586,0,0,1,975.965,7533.74Zm-9.365,2.72v-3.57q1.134-.135,2.2-0.3v3.54Q967.758,7536.31,966.6,7536.46Zm3.667-.61v-3.52c0.778-.15,1.515-0.32,2.2-0.5v3.48C971.81,7535.5,971.07,7535.68,970.267,7535.85Zm-5.134-2.8v3.58c-0.708.07-1.441,0.14-2.2,0.19v-3.6C963.677,7533.17,964.412,7533.12,965.133,7533.05Zm-14.666,3.58v-3.58c0.721,0.07,1.456.12,2.2,0.17v3.6C951.92,7536.77,951.184,7536.71,950.467,7536.63ZM949,7532.89v3.57c-0.145-.02-0.3-0.03-0.44-0.05a2.66,2.66,0,0,0-.276-0.04c-0.424-.06-0.838-0.13-1.244-0.2a1.938,1.938,0,0,1-.24-0.04v-3.54Q947.865,7532.755,949,7532.89Zm7.885,12.59c-0.1-.01-0.2-0.02-0.3-0.02q-0.7-.06-1.375-0.12l-0.288-.03a0.121,0.121,0,0,0-.058-0.01v-3.59c0.721,0.07,1.456.13,2.2,0.18v3.6A1.117,1.117,0,0,0,956.885,7545.48Zm-4.845-.54c-0.291-.05-0.564-0.1-0.84-0.14v-3.55c0.71,0.12,1.444.22,2.2,0.31v3.57c-0.449-.06-0.888-0.12-1.31-0.18A0.092,0.092,0,0,0,952.04,7544.94Zm-2.307-3.94v3.52c-0.81-.18-1.545-0.36-2.2-0.55v-3.47C948.218,7540.68,948.955,7540.84,949.733,7541Zm-3.666-.94v3.43a4.584,4.584,0,0,1-2.139-1.29l-0.049-.08a0.427,0.427,0,0,1-.012-0.07v-2.99A11.227,11.227,0,0,0,946.067,7540.06Zm17.588,1.98c0.738-.01,1.477-0.04,2.212-0.07v3.6c-0.964.05-1.944,0.08-2.934,0.09v-3.61c0.2,0,.4,0,0.605-0.01h0.117Zm9.477,2.77c-0.322.06-.647,0.11-0.981,0.16-0.191.03-.387,0.06-0.583,0.08s-0.379.05-.567,0.08v-3.57c0.756-.09,1.49-0.19,2.2-0.31v3.55C973.177,7544.8,973.155,7544.81,973.132,7544.81Zm-4.966.62c-0.273.02-.556,0.04-0.833,0.05v-3.59c0.744-.05,1.479-0.11,2.2-0.18v3.59c-0.426.04-.851,0.09-1.289,0.12C968.218,7545.42,968.193,7545.43,968.166,7545.43Zm8.381-1.36c-0.365.1-.752,0.2-1.146,0.29l-0.56.12a1.044,1.044,0,0,1-.174.04V7541c0.779-.16,1.515-0.32,2.2-0.5v3.49C976.762,7544.02,976.655,7544.05,976.547,7544.07Zm3.978-7.02c-0.067.49-1.2,1.14-3.21,1.75h0a50.187,50.187,0,0,1-11.8,1.74l-0.794.03c-0.219.01-.439,0.01-0.663,0.02-0.607.01-1.223,0.02-1.858,0.02s-1.251-.01-1.858-0.02c-0.223-.01-0.443-0.02-0.663-0.02l-0.794-.03a50.179,50.179,0,0,1-11.8-1.74h0c-2-.61-3.125-1.25-3.208-1.74a0.086,0.086,0,0,1,.012-0.04l0.157,0.03c0.286,0.07.58,0.13,0.879,0.19,1.458,0.31,3.072.57,4.793,0.76h0.019c1.172,0.13,2.388.24,3.636,0.31,0.009,0,.017.01,0.027,0.01s0.009-.01.014-0.01c0.9,0.05,1.808.09,2.729,0.11,0.564,0.02,1.118.02,1.657,0.02,0.385,0,.779,0,1.178-0.01a56.8,56.8,0,0,0,13.7-1.67c0.158-.04.313-0.09,0.465-0.13l0.279-.09c0.266-.08.52-0.17,0.766-0.26a0.652,0.652,0,0,0,.125-0.05c0.208-.07.407-0.15,0.6-0.23,0.055-.03.111-0.05,0.165-0.08,0.2-.09.4-0.18,0.581-0.27,0.082-.05.154-0.09,0.231-0.13s0.176-.11.257-0.16a0.942,0.942,0,0,0,.145-0.08C979.576,7535.98,980.442,7536.75,980.525,7537.05ZM957.8,7525.44c12.092,0,18.208,1.88,18.322,2.95-0.088.49-1.214,1.14-3.207,1.74h0a49.662,49.662,0,0,1-11.8,1.74l-0.794.03c-0.219.01-.439,0.01-0.663,0.02-0.607.01-1.223,0.02-1.858,0.02s-1.251-.01-1.858-0.02c-0.223,0-.443-0.01-0.663-0.02l-0.794-.03a49.645,49.645,0,0,1-11.8-1.74h0c-1.994-.6-3.119-1.25-3.207-1.74C939.592,7527.32,945.708,7525.44,957.8,7525.44Zm-18.333,7.95v-3a10.647,10.647,0,0,0,2.2,1v3.46C940.24,7534.32,939.468,7533.79,939.467,7533.39Zm3.552,9.99c0.011,0.01.028,0.02,0.039,0.03,1,1,3.083,1.79,5.671,2.37,0.059,0.01.122,0.03,0.182,0.04l0.578,0.12a57.353,57.353,0,0,0,8.3,1.04H957.8q1.489,0.09,3.046.12c0.459,0,.91.01,1.352,0.01,0.506,0,1.025-.01,1.553-0.02,0.959-.02,1.9-0.06,2.837-0.11h0.028a58.05,58.05,0,0,0,8.466-1.07,13.137,13.137,0,0,1-2.169.84h0a51.672,51.672,0,0,1-12.673,1.77c-0.165,0-.328.01-0.5,0.01s-0.362.01-.545,0.01c-0.461.01-.925,0.01-1.4,0.01-0.635,0-1.251,0-1.858-.02-0.223,0-.443-0.01-0.663-0.02l-0.794-.03a49.739,49.739,0,0,1-11.8-1.73h0c-2.016-.62-3.145-1.27-3.21-1.76C939.556,7544.72,940.3,7544.04,943.019,7543.38Zm-3.552,6.62v-2.99a11.219,11.219,0,0,0,2.2.99v3.44l-0.419-.16-0.009.01C940.088,7550.82,939.468,7550.36,939.467,7550Zm2.2,7.94v-2.99a10.685,10.685,0,0,0,2.2.99v3.46C942.44,7558.88,941.668,7558.35,941.667,7557.94Zm34.466,1.46v-3.46a10.685,10.685,0,0,0,2.2-.99v2.99C978.333,7558.35,977.56,7558.87,976.133,7559.4Zm2.191-6.46c-0.08.49-1.207,1.14-3.209,1.75h0a50.187,50.187,0,0,1-11.8,1.74l-0.794.03c-0.219,0-.439.01-0.663,0.02-0.607.01-1.223,0.02-1.858,0.02s-1.252-.01-1.86-0.02c-0.221-.01-0.438-0.02-0.656-0.02l-0.8-.03a50.179,50.179,0,0,1-11.8-1.74h0c-1.939-.59-3.06-1.22-3.2-1.7,0.219,0.07.445,0.15,0.678,0.22,0.023,0.01.047,0.01,0.07,0.02,0.2,0.06.4,0.12,0.608,0.17a2.079,2.079,0,0,0,.238.07l0.358,0.09a54.239,54.239,0,0,0,9.76,1.36s0,0.01,0,.01,0-.01,0-0.01c1.137,0.07,2.3.11,3.471,0.13H957.8c0.4,0,.818,0,1.236-0.01,1.07-.01,2.126-0.05,3.159-0.11H962.2s0.006-.01.009-0.01c1.258-.07,2.475-0.18,3.645-0.31h0.058c1.3-.15,2.537-0.34,3.683-0.55,0.236-.04.469-0.08,0.7-0.13l0.154-.03a19.723,19.723,0,0,0,5.326-1.71,1.675,1.675,0,0,0,.2-0.11q0.121-.075.234-0.15c0.071-.04.152-0.09,0.217-0.13C977.877,7552.31,978.276,7552.76,978.324,7552.94Zm0.009-9.43v-3.45a10.671,10.671,0,0,0,2.2-1v2.99C980.533,7542.46,979.76,7542.99,978.333,7543.51Z" transform="translate(-938 -7524)"/>
</svg>
