<svg xmlns="http://www.w3.org/2000/svg" width="56" height="60" viewBox="0 0 56 60">
  <metadata><?xpacket begin="﻿" id="W5M0MpCehiHzreSzNTczkc9d"?>
<x:xmpmeta xmlns:x="adobe:ns:meta/" x:xmptk="Adobe XMP Core 5.6-c138 79.159824, 2016/09/14-01:09:01        ">
   <rdf:RDF xmlns:rdf="http://www.w3.org/1999/02/22-rdf-syntax-ns#">
      <rdf:Description rdf:about=""/>
   </rdf:RDF>
</x:xmpmeta>
                                                                                                    
                                                                                                    
                                                                                                    
                                                                                                    
                                                                                                    
                                                                                                    
                                                                                                    
                                                                                                    
                                                                                                    
                                                                                                    
                                                                                                    
                                                                                                    
                                                                                                    
                                                                                                    
                                                                                                    
                                                                                                    
                                                                                                    
                                                                                                    
                                                                                                    
                                                                                                    
                           
<?xpacket end="w"?></metadata>
<defs>
    <style>
      .cls-1 {
        fill: #1d61b3;
        fill-rule: evenodd;
      }
    </style>
  </defs>
  <path id="_2" data-name="2" class="cls-1" d="M982.027,5149.19H976.8v-6.63a16.8,16.8,0,0,0-33.6,0v6.63h-5.227a5.858,5.858,0,0,0-5.973,5.89v25.03a5.858,5.858,0,0,0,5.973,5.89h44.054a5.858,5.858,0,0,0,5.973-5.89v-25.03A5.858,5.858,0,0,0,982.027,5149.19Zm-35.094-6.63a13.068,13.068,0,0,1,26.134,0v6.63H946.933v-6.63Zm37.334,37.55a2.4,2.4,0,0,1-2.24,2.21H937.973a2.4,2.4,0,0,1-2.24-2.21v-25.03a2.4,2.4,0,0,1,2.24-2.21h44.054a2.4,2.4,0,0,1,2.24,2.21v25.03Zm-22.4-11.54v-5.39a1.867,1.867,0,0,0-3.734,0v5.39a3.611,3.611,0,0,0-.747.5,3.52,3.52,0,0,0,0,5.15,3.655,3.655,0,0,0,5.227,0,3.52,3.52,0,0,0,0-5.15A3.632,3.632,0,0,0,961.867,5168.57Z" transform="translate(-932 -5126)"/>
</svg>
