<svg xmlns="http://www.w3.org/2000/svg" width="72" height="76" viewBox="0 0 72 76">
  <metadata><?xpacket begin="﻿" id="W5M0MpCehiHzreSzNTczkc9d"?>
<x:xmpmeta xmlns:x="adobe:ns:meta/" x:xmptk="Adobe XMP Core 5.6-c138 79.159824, 2016/09/14-01:09:01        ">
   <rdf:RDF xmlns:rdf="http://www.w3.org/1999/02/22-rdf-syntax-ns#">
      <rdf:Description rdf:about=""/>
   </rdf:RDF>
</x:xmpmeta>
                                                                                                    
                                                                                                    
                                                                                                    
                                                                                                    
                                                                                                    
                                                                                                    
                                                                                                    
                                                                                                    
                                                                                                    
                                                                                                    
                                                                                                    
                                                                                                    
                                                                                                    
                                                                                                    
                                                                                                    
                                                                                                    
                                                                                                    
                                                                                                    
                                                                                                    
                                                                                                    
                           
<?xpacket end="w"?></metadata>
<defs>
    <style>
      .cls-1 {
        fill: #1d61b3;
        fill-rule: evenodd;
      }
    </style>
  </defs>
  <path class="cls-1" d="M833.067,3401.35l-0.269-.08a42.383,42.383,0,0,1-6.949-2.73c-6.154-2.37-7.755-4.07-8.164-4.87-0.014-.03-0.026-0.07-0.039-0.09l-0.04-5.43a26.956,26.956,0,0,0,5.646-15.73,27.491,27.491,0,0,0-3.092-18.53l0-.04h-0.021a24.458,24.458,0,0,0-4.608-5.63c-2.045-1.87-7.09-4.22-13.174-4.22a23.143,23.143,0,0,0-13.331,4.22c-8.751,6.04-7.867,21.28-7.867,21.28s0.611,0.15,1.713.3c-0.08.85-.122,1.73-0.122,2.62a26.956,26.956,0,0,0,5.646,15.73l-0.039,5.43a0.793,0.793,0,0,0-.04.09c-0.409.8-2.01,2.5-8.164,4.87a41.472,41.472,0,0,1-6.949,2.73l-0.269.08a8.675,8.675,0,0,0-5.933,8.24V3420h72v-10.41A8.676,8.676,0,0,0,833.067,3401.35Zm-14.419-43.52a23.188,23.188,0,0,1,1.728,6.41c0.044,0.35.08,0.7,0.108,1.04a12.612,12.612,0,0,0-1.684-2.48,9.443,9.443,0,0,0-2.3-1.93A7.251,7.251,0,0,1,818.648,3357.83Zm-33.73,3.76a23.53,23.53,0,0,1,2.017-6.13,12.186,12.186,0,0,1,3.863-4.63,20.012,20.012,0,0,1,11.557-3.66c5.35,0,9.627,2.08,11.067,3.39a21.754,21.754,0,0,1,3.738,4.46,9.995,9.995,0,0,0-3.614,4.77,9.228,9.228,0,0,0-1.589-.13,15.542,15.542,0,0,0-7.723,2.44,34.767,34.767,0,0,1-17.349,4.79c-0.987,0-1.855-.05-2.574-0.12A35.86,35.86,0,0,1,784.918,3361.59Zm10.752,55.24H770.14v-7.24a5.521,5.521,0,0,1,3.729-5.22l0.175-.05a30.355,30.355,0,0,0,5.864-2.21c0.5-.24.938-0.45,1.361-0.62a32.537,32.537,0,0,0,7.341-3.68l6.669,3.52,1.152-.98,0.812,4.09Zm-4.755-21.38a3.754,3.754,0,0,0,.2-0.34,2.367,2.367,0,0,0,.118-0.26l0.262-.58,0-.67,0.013-1.83a26.624,26.624,0,0,0,5.271,4.13l-1.917,1.63ZM803,3416.83h-4.166l1.408-11.08h5.509l1.59,11.08H803Zm-3.83-18.82,0.764-.66a9.728,9.728,0,0,0,3.066.55,10.084,10.084,0,0,0,3.237-.6l0.626,0.53-0.941,4.75h-5.846Zm3.83-3.28a10.131,10.131,0,0,1-4.815-1.67,25.028,25.028,0,0,1-5.84-5.01c-4.1-4.72-6.457-10.41-6.457-15.63,0-.81.039-1.6,0.115-2.38,0.285,0.01.577,0.01,0.881,0.01a37.887,37.887,0,0,0,18.907-5.2,12.693,12.693,0,0,1,6.165-2.03c3.954,0,5.746,3.39,6.823,6.45a5.965,5.965,0,0,0,1.313,2.26c0.012,0.3.019,0.59,0.019,0.89,0,5.22-2.354,10.91-6.458,15.63a25.028,25.028,0,0,1-5.84,5.01A10.131,10.131,0,0,1,803,3394.73Zm12.144,0.82-3.766,1.98-2.015-1.72a26.448,26.448,0,0,0,5.127-4.04l0.014,1.83,0,0.67,0.26,0.58c0.023,0.05.062,0.15,0.119,0.26A4.584,4.584,0,0,0,815.145,3395.55Zm9.958,21.28h-9.422v-3.16H825.1v3.16Zm10.757,0h-7.614v-6.33h-4.712a1.571,1.571,0,0,0-1.571-1.58h-3.14a1.571,1.571,0,0,0-1.571,1.58h-4.711v6.33h-2.025l-1.771-12.34,0.858-4.32,1.36,1.16,6.528-3.45a33.512,33.512,0,0,0,7.242,3.62c0.421,0.16.856,0.37,1.359,0.61a29.722,29.722,0,0,0,5.864,2.21l0.175,0.05a5.517,5.517,0,0,1,3.729,5.22v7.24Z" transform="translate(-767 -3344)"/>
</svg>
