<svg xmlns="http://www.w3.org/2000/svg" width="23" height="23" viewBox="0 0 23 23">
  <metadata><?xpacket begin="﻿" id="W5M0MpCehiHzreSzNTczkc9d"?>
<x:xmpmeta xmlns:x="adobe:ns:meta/" x:xmptk="Adobe XMP Core 5.6-c138 79.159824, 2016/09/14-01:09:01        ">
   <rdf:RDF xmlns:rdf="http://www.w3.org/1999/02/22-rdf-syntax-ns#">
      <rdf:Description rdf:about=""/>
   </rdf:RDF>
</x:xmpmeta>
                                                                                                    
                                                                                                    
                                                                                                    
                                                                                                    
                                                                                                    
                                                                                                    
                                                                                                    
                                                                                                    
                                                                                                    
                                                                                                    
                                                                                                    
                                                                                                    
                                                                                                    
                                                                                                    
                                                                                                    
                                                                                                    
                                                                                                    
                                                                                                    
                                                                                                    
                                                                                                    
                           
<?xpacket end="w"?></metadata>
<defs>
    <style>
      .cls-1 {
        fill: #fff;
        fill-rule: evenodd;
      }
    </style>
  </defs>
  <path id="_-" data-name="-" class="cls-1" d="M1366.58,12219h-18.16a2.424,2.424,0,0,0-2.42,2.4v18.2a2.431,2.431,0,0,0,2.42,2.4h18.16a2.424,2.424,0,0,0,2.42-2.4v-18.2A2.431,2.431,0,0,0,1366.58,12219Zm1.27,20.6a1.214,1.214,0,0,1-1.27,1.2h-18.16a1.214,1.214,0,0,1-1.27-1.2v-18.2a1.3,1.3,0,0,1,1.27-1.3h18.16a1.3,1.3,0,0,1,1.27,1.3v18.2h0Zm-6.01-9.7h-8.69a0.6,0.6,0,0,0,0,1.2h8.69A0.6,0.6,0,0,0,1361.84,12229.9Z" transform="translate(-1346 -12219)"/>
</svg>
