<svg xmlns="http://www.w3.org/2000/svg" width="87" height="87" viewBox="0 0 87 87">
  <metadata><?xpacket begin="﻿" id="W5M0MpCehiHzreSzNTczkc9d"?>
<x:xmpmeta xmlns:x="adobe:ns:meta/" x:xmptk="Adobe XMP Core 5.6-c138 79.159824, 2016/09/14-01:09:01        ">
   <rdf:RDF xmlns:rdf="http://www.w3.org/1999/02/22-rdf-syntax-ns#">
      <rdf:Description rdf:about=""/>
   </rdf:RDF>
</x:xmpmeta>
                                                                                                    
                                                                                                    
                                                                                                    
                                                                                                    
                                                                                                    
                                                                                                    
                                                                                                    
                                                                                                    
                                                                                                    
                                                                                                    
                                                                                                    
                                                                                                    
                                                                                                    
                                                                                                    
                                                                                                    
                                                                                                    
                                                                                                    
                                                                                                    
                                                                                                    
                                                                                                    
                           
<?xpacket end="w"?></metadata>
<defs>
    <style>
      .cls-1 {
        fill: #1d61b3;
        fill-rule: evenodd;
      }
    </style>
  </defs>
  <path id="icon" class="cls-1" d="M1432.5,3361.2a20.3,20.3,0,1,0,20.3,20.3A20.3,20.3,0,0,0,1432.5,3361.2Zm15.09,11.67a17.339,17.339,0,0,1,2.24,7.18h-7.21a39.214,39.214,0,0,0-.72-6.3C1443.93,3373.53,1445.85,3373.23,1447.59,3372.87Zm-1.82-2.6c-1.43.26-2.96,0.48-4.58,0.64a21.241,21.241,0,0,0-2.57-5.68A17.462,17.462,0,0,1,1445.77,3370.27Zm-20.49,9.78a35.973,35.973,0,0,1,.72-6.03c2.09,0.15,4.28.23,6.5,0.23s4.41-.08,6.5-0.23a35.973,35.973,0,0,1,.72,6.03h-14.44Zm14.44,2.9a35.973,35.973,0,0,1-.72,6.03c-2.09-.15-4.28-0.23-6.5-0.23s-4.41.08-6.5,0.23a35.973,35.973,0,0,1-.72-6.03h14.44Zm-7.22-18.85c2.09,0,4.32,2.66,5.75,7.06-1.86.12-3.79,0.19-5.75,0.19s-3.89-.07-5.75-0.19C1428.18,3366.76,1430.41,3364.1,1432.5,3364.1Zm-6.12,1.13a21.241,21.241,0,0,0-2.57,5.68c-1.62-.16-3.15-0.38-4.58-0.64A17.4,17.4,0,0,1,1426.38,3365.23Zm-8.97,7.64c1.74,0.36,3.65.66,5.69,0.88a39.214,39.214,0,0,0-.72,6.3h-7.21A17.339,17.339,0,0,1,1417.41,3372.87Zm0,17.26a17.339,17.339,0,0,1-2.24-7.18h7.21a39.344,39.344,0,0,0,.72,6.3C1421.07,3389.47,1419.15,3389.77,1417.41,3390.13Zm1.82,2.6c1.43-.26,2.96-0.48,4.58-0.65a21.3,21.3,0,0,0,2.57,5.69A17.4,17.4,0,0,1,1419.23,3392.73Zm13.27,6.17c-2.09,0-4.32-2.67-5.75-7.06,1.86-.12,3.79-0.19,5.75-0.19s3.89,0.07,5.75.19C1436.82,3396.23,1434.59,3398.9,1432.5,3398.9Zm6.12-1.13a21.3,21.3,0,0,0,2.57-5.69c1.62,0.17,3.15.39,4.58,0.65A17.462,17.462,0,0,1,1438.62,3397.77Zm8.97-7.64c-1.74-.36-3.65-0.66-5.69-0.88a39.344,39.344,0,0,0,.72-6.3h7.21A17.339,17.339,0,0,1,1447.59,3390.13ZM1404.95,3338h-14.5a1.451,1.451,0,0,0-1.45,1.45v11.6a1.451,1.451,0,0,0,1.45,1.45h5.8v2.9h-5.8v2.9h14.5v-2.9h-5.8v-2.9h5.8a1.451,1.451,0,0,0,1.45-1.45v-11.6A1.451,1.451,0,0,0,1404.95,3338Zm-1.45,11.6h-11.6v-8.7h11.6v8.7Zm71.05-11.6h-14.5a1.451,1.451,0,0,0-1.45,1.45v11.6a1.451,1.451,0,0,0,1.45,1.45h5.8v2.9h-5.8v2.9h14.5v-2.9h-5.8v-2.9h5.8a1.451,1.451,0,0,0,1.45-1.45v-11.6A1.451,1.451,0,0,0,1474.55,3338Zm-1.45,11.6h-11.6v-8.7h11.6v8.7Zm-68.15,69.6a1.451,1.451,0,0,0,1.45-1.45v-11.6a1.451,1.451,0,0,0-1.45-1.45h-14.5a1.451,1.451,0,0,0-1.45,1.45v11.6a1.451,1.451,0,0,0,1.45,1.45h5.8v2.9H1389v2.9h17.4v-2.9h-7.25v-2.9h5.8Zm-13.05-2.9v-8.7h11.6v8.7h-11.6Zm82.65,2.9a1.451,1.451,0,0,0,1.45-1.45v-11.6a1.451,1.451,0,0,0-1.45-1.45h-14.5a1.451,1.451,0,0,0-1.45,1.45v11.6a1.451,1.451,0,0,0,1.45,1.45h5.8v2.9h-7.25v2.9H1476v-2.9h-7.25v-2.9h5.8Zm-13.05-2.9v-8.7h11.6v8.7h-11.6Zm-49.51-57.37,2.12-.71-0.92-2.75-4.35,1.45a1.46,1.46,0,0,0-.91.92l-1.45,4.35,2.75,0.92,0.71-2.13,4.14,4.14,2.05-2.05Zm45.09-1.08a1.445,1.445,0,0,0-.92-0.93l-4.35-1.45-0.92,2.76,2.13,0.71-4.15,4.14,2.06,2.05,4.14-4.14,0.71,2.12,2.75-.91Zm-40.96,42.07-2.05-2.05-4.14,4.15-0.71-2.13-2.75.92,1.45,4.35a1.416,1.416,0,0,0,.92.91l4.35,1.45,0.91-2.75-2.12-.71Zm39.65-.03-0.71,2.13-4.14-4.15-2.05,2.05,4.14,4.14-2.12.71,0.92,2.75,4.35-1.45a1.423,1.423,0,0,0,.91-0.91l1.45-4.35Zm-24.72-56.09h2.9v11.6h-2.9v-11.6Zm0-5.8h2.9v2.9h-2.9V3338Zm6.22,19.27,2.9-2.9,2.05,2.05-2.9,2.9Zm-14.49-.85,2.05-2.05,2.9,2.9-2.06,2.05Zm8.27,51.18h2.9v11.6h-2.9v-11.6Zm0,14.5h2.9v2.9h-2.9v-2.9Zm6.22-16.38,2.06-2.05,2.89,2.9-2.05,2.06Zm-13.77.13,2.17-2.18,2.06,2.05-2.18,2.18Zm35.1-25.8h11.6v2.9h-11.6v-2.9Zm14.5,0h2.9v2.9h-2.9v-2.9Zm-18.43-5.38,2.9-2.9,2.05,2.05-2.89,2.9Zm0,13.65,2.06-2.05,2.89,2.9-2.05,2.05Zm-59.87-8.27h11.6v2.9h-11.6v-2.9Zm-5.8,0h2.9v2.9H1389v-2.9Zm16.38-6.23,2.05-2.05,2.9,2.9-2.06,2.05Zm-0.01,15.35,2.9-2.9,2.05,2.05-2.9,2.9Z" transform="translate(-1389 -3338)"/>
</svg>
