<svg xmlns="http://www.w3.org/2000/svg" width="50" height="63" viewBox="0 0 50 63">
  <metadata><?xpacket begin="﻿" id="W5M0MpCehiHzreSzNTczkc9d"?>
<x:xmpmeta xmlns:x="adobe:ns:meta/" x:xmptk="Adobe XMP Core 5.6-c138 79.159824, 2016/09/14-01:09:01        ">
   <rdf:RDF xmlns:rdf="http://www.w3.org/1999/02/22-rdf-syntax-ns#">
      <rdf:Description rdf:about=""/>
   </rdf:RDF>
</x:xmpmeta>
                                                                                                    
                                                                                                    
                                                                                                    
                                                                                                    
                                                                                                    
                                                                                                    
                                                                                                    
                                                                                                    
                                                                                                    
                                                                                                    
                                                                                                    
                                                                                                    
                                                                                                    
                                                                                                    
                                                                                                    
                                                                                                    
                                                                                                    
                                                                                                    
                                                                                                    
                                                                                                    
                           
<?xpacket end="w"?></metadata>
<defs>
    <style>
      .cls-1 {
        fill: #fff;
        fill-rule: evenodd;
      }
    </style>
  </defs>
  <path id="icon" class="cls-1" d="M960.41,1766.82a21.59,21.59,0,1,0,20.377,28.85,0.966,0.966,0,1,0-1.82-.65,19.436,19.436,0,0,1-1.36,2.98q-1.288-.585-2.636-1.08a28.391,28.391,0,0,0,1.253-7.55h3.859a19.639,19.639,0,0,1-.232,2.22,0.966,0.966,0,0,0,1.907.31,21.887,21.887,0,0,0,.281-3.49A21.631,21.631,0,0,0,960.41,1766.82Zm8.518,6.06a9.689,9.689,0,0,0-1.627-.14,8.747,8.747,0,0,0-1.15.07,16.485,16.485,0,0,0-1.553-3.15A13.213,13.213,0,0,1,968.928,1772.88Zm-7.552-3.84c1.007,0.59,2.02,2.07,2.874,4.21a9.692,9.692,0,0,0-2.874,1.61v-5.82Zm5.925,5.63a7.788,7.788,0,0,1,7.64,7.91,7.962,7.962,0,0,1-4.921,7.4,1.761,1.761,0,0,0-.882.77l-1.837,3.27-1.836-3.27h0a1.765,1.765,0,0,0-.882-0.77,7.962,7.962,0,0,1-4.921-7.4A7.788,7.788,0,0,1,967.3,1774.67Zm6.99,14.7a26.468,26.468,0,0,1-1.152,6.93,40.539,40.539,0,0,0-4.289-1.09l1.941-3.46a9.4,9.4,0,0,0,3.424-2.38h0.076Zm-8.835,5.31c-1.346-.15-2.708-0.25-4.08-0.28v-4.1a9.331,9.331,0,0,0,2.435,1.45Zm-6.012-25.64v7.93a10.024,10.024,0,0,0-1.479,3.45q-1.595-.09-3.166-0.3a34.647,34.647,0,0,1,1.44-5.98C957.155,1771.51,958.3,1769.71,959.444,1769.04Zm-0.451,18.4h-4.8c0.03-1.86.147-3.68,0.346-5.41,1.056,0.14,2.122.25,3.195,0.31,0,0.08-.006.16-0.006,0.24A9.99,9.99,0,0,0,958.993,1787.44Zm0.451,1.93v5.03a46.72,46.72,0,0,0-4.9.38c-0.2-1.73-.316-3.54-0.346-5.41h5.249Zm-3.223-19.71a17.586,17.586,0,0,0-1.807,3.85,36.356,36.356,0,0,0-1.522,6.31c-0.187-.03-0.375-0.07-0.562-0.1a0.958,0.958,0,0,0-1.136.75,0.971,0.971,0,0,0,.76,1.14l0.678,0.12a57.16,57.16,0,0,0-.369,5.71h-5.735a26.434,26.434,0,0,1,1.152-6.92c0.324,0.1.649,0.2,0.977,0.29a0.813,0.813,0,0,0,.265.04,0.972,0.972,0,0,0,.929-0.7,0.961,0.961,0,0,0-.664-1.19c-0.288-.08-0.575-0.17-0.861-0.26C950.045,1774.44,952.858,1771.17,956.221,1769.66Zm-3.589,25.42a40.5,40.5,0,0,0-4.952,1.22,26.51,26.51,0,0,1-1.152-6.93h5.735A57.068,57.068,0,0,0,952.632,1795.08Zm-1.874-23.81a19.5,19.5,0,0,0-1.644,1.99,22.379,22.379,0,0,0-2.62,4.82c-0.761-.28-1.508-0.59-2.236-0.91A19.858,19.858,0,0,1,950.758,1771.27Zm-7.539,7.55q1.282,0.585,2.629,1.08a28.249,28.249,0,0,0-1.253,7.54h-3.859A19.451,19.451,0,0,1,943.219,1778.82Zm-2.483,10.55H944.6a28.391,28.391,0,0,0,1.253,7.55q-1.341.495-2.628,1.08A19.518,19.518,0,0,1,940.736,1789.37Zm3.52,10.28c0.731-.33,1.478-0.63,2.238-0.91a22.862,22.862,0,0,0,2.62,4.82,18.337,18.337,0,0,0,1.644,1.98A19.835,19.835,0,0,1,944.256,1799.65Zm4.07-1.54a38.2,38.2,0,0,1,4.566-1.11,36.58,36.58,0,0,0,1.522,6.31,17.813,17.813,0,0,0,1.807,3.85C952.858,1805.65,950.045,1802.38,948.326,1798.11Zm13.05,9.67v-2.92a0.966,0.966,0,1,0-1.932,0v2.92c-1.141-.67-2.289-2.47-3.2-5.1a34.77,34.77,0,0,1-1.44-5.99,44.544,44.544,0,0,1,4.645-.36v4.54a0.966,0.966,0,0,0,1.932,0v-4.54a44.485,44.485,0,0,1,4.643.36,34.68,34.68,0,0,1-1.439,5.99C963.664,1805.31,962.516,1807.11,961.376,1807.78Zm3.222-.62a17.813,17.813,0,0,0,1.807-3.85,36.583,36.583,0,0,0,1.521-6.31,38.262,38.262,0,0,1,4.567,1.11C970.774,1802.38,967.961,1805.65,964.6,1807.16Zm11.973-7.51a19.821,19.821,0,0,1-6.5,5.89,20.462,20.462,0,0,0,1.638-1.98,22.817,22.817,0,0,0,2.62-4.82C975.088,1799.02,975.837,1799.32,976.571,1799.65Zm-4.208-25.42c-0.212-.33-0.431-0.65-0.658-0.97a19.5,19.5,0,0,0-1.644-1.99,19.858,19.858,0,0,1,6.5,5.9c-0.333.15-.67,0.29-1.01,0.43A9.77,9.77,0,0,0,972.363,1774.23Zm3.86,13.21c-0.012-.39-0.032-0.78-0.06-1.16a10.019,10.019,0,0,0,.18-6.92q0.635-.255,1.256-0.54a19.452,19.452,0,0,1,2.484,8.62h-3.86Zm-8.922-9.69a4.836,4.836,0,0,0,0,9.67,4.586,4.586,0,0,0,1.678-.32,0.96,0.96,0,1,0-.7-1.79,2.727,2.727,0,0,1-.98.18,2.907,2.907,0,1,1,2.813-2.91,2.948,2.948,0,0,1-.109.8,0.967,0.967,0,0,0,1.862.52,4.927,4.927,0,0,0,.179-1.32A4.8,4.8,0,0,0,967.3,1777.75Zm-4.519-23.85a0.965,0.965,0,0,0-.966.97,1.973,1.973,0,1,1-1.972-2.05,1.935,1.935,0,0,1,1.044.31,0.963,0.963,0,1,0,1.056-1.61,3.833,3.833,0,0,0-2.1-.63,3.976,3.976,0,1,0,3.9,3.98A0.965,0.965,0,0,0,962.782,1753.9Zm-2.938-6.9a7.772,7.772,0,0,0-7.654,7.87,7.917,7.917,0,0,0,4.791,7.29l2.021,3.6a0.96,0.96,0,0,0,1.685,0l2.021-3.6a7.918,7.918,0,0,0,4.791-7.29A7.773,7.773,0,0,0,959.844,1747Zm2.036,13.42a1.532,1.532,0,0,0-.8.69l-1.24,2.21-1.239-2.21h0a1.543,1.543,0,0,0-.794-0.69,5.987,5.987,0,0,1-3.688-5.55,5.726,5.726,0,1,1,11.445,0A5.987,5.987,0,0,1,961.88,1760.42Zm-20.564-3.1A6.409,6.409,0,0,0,935,1763.8a6.53,6.53,0,0,0,3.89,5.99l1.584,2.82a0.96,0.96,0,0,0,1.685,0l1.585-2.82a6.531,6.531,0,0,0,3.889-5.99A6.409,6.409,0,0,0,941.316,1757.32Zm1.556,10.74a1.455,1.455,0,0,0-.733.64l-0.823,1.47-0.823-1.47a1.456,1.456,0,0,0-.732-0.64,4.582,4.582,0,0,1-2.829-4.26,4.388,4.388,0,1,1,8.769,0A4.582,4.582,0,0,1,942.872,1768.06Zm-1.556-7.63a3.37,3.37,0,1,0,3.316,3.37A3.345,3.345,0,0,0,941.316,1760.43Zm0,4.81a1.441,1.441,0,1,1,1.384-1.44A1.411,1.411,0,0,1,941.316,1765.24Zm37.367-7.92a6.409,6.409,0,0,0-6.316,6.48,6.531,6.531,0,0,0,3.889,5.99l1.584,2.82a0.961,0.961,0,0,0,1.686,0l1.584-2.82a6.53,6.53,0,0,0,3.89-5.99A6.409,6.409,0,0,0,978.683,1757.32Zm1.556,10.74a1.447,1.447,0,0,0-.733.64l-0.823,1.47-0.824-1.47a1.448,1.448,0,0,0-.732-0.64,4.583,4.583,0,0,1-2.828-4.26,4.388,4.388,0,1,1,8.769,0A4.582,4.582,0,0,1,980.239,1768.06Zm-1.556-7.63A3.37,3.37,0,1,0,982,1763.8,3.346,3.346,0,0,0,978.683,1760.43Zm0,4.81a1.441,1.441,0,1,1,1.384-1.44A1.41,1.41,0,0,1,978.683,1765.24Z" transform="translate(-935 -1747)"/>
</svg>
