<svg xmlns="http://www.w3.org/2000/svg" width="46" height="60" viewBox="0 0 46 60">
  <metadata><?xpacket begin="﻿" id="W5M0MpCehiHzreSzNTczkc9d"?>
<x:xmpmeta xmlns:x="adobe:ns:meta/" x:xmptk="Adobe XMP Core 5.6-c138 79.159824, 2016/09/14-01:09:01        ">
   <rdf:RDF xmlns:rdf="http://www.w3.org/1999/02/22-rdf-syntax-ns#">
      <rdf:Description rdf:about=""/>
   </rdf:RDF>
</x:xmpmeta>
                                                                                                    
                                                                                                    
                                                                                                    
                                                                                                    
                                                                                                    
                                                                                                    
                                                                                                    
                                                                                                    
                                                                                                    
                                                                                                    
                                                                                                    
                                                                                                    
                                                                                                    
                                                                                                    
                                                                                                    
                                                                                                    
                                                                                                    
                                                                                                    
                                                                                                    
                                                                                                    
                           
<?xpacket end="w"?></metadata>
<defs>
    <style>
      .cls-1 {
        fill: #1d61b3;
        fill-rule: evenodd;
      }
    </style>
  </defs>
  <path id="_5" data-name="5" class="cls-1" d="M974.154,5337H945.846a8.747,8.747,0,0,0-8.846,8.82v42.36a8.747,8.747,0,0,0,8.846,8.82h28.308a8.747,8.747,0,0,0,8.846-8.82v-42.36A8.747,8.747,0,0,0,974.154,5337Zm5.307,51.18a5.433,5.433,0,0,1-5.307,5.29H945.846a5.434,5.434,0,0,1-5.308-5.29v-42.36a5.434,5.434,0,0,1,5.308-5.29h28.308a5.433,5.433,0,0,1,5.307,5.29v42.36h0Zm-30.076-30h7.076a1.673,1.673,0,0,0,1.77-1.77v-7.06a1.665,1.665,0,0,0-1.77-1.76h-7.076a1.665,1.665,0,0,0-1.77,1.76v7.06A1.673,1.673,0,0,0,949.385,5358.18Zm1.769-7.06h3.538v3.53h-3.538v-3.53Zm19.461,10.59h-21.23a1.76,1.76,0,1,0,0,3.52h21.23A1.76,1.76,0,1,0,970.615,5361.71Zm0,10.58h-21.23a1.765,1.765,0,1,0,0,3.53h21.23A1.765,1.765,0,1,0,970.615,5372.29Zm0,10.59h-21.23a1.765,1.765,0,1,0,0,3.53h21.23A1.765,1.765,0,1,0,970.615,5382.88Zm0-31.76h-7.076a1.765,1.765,0,1,0,0,3.53h7.076A1.765,1.765,0,1,0,970.615,5351.12Z" transform="translate(-937 -5337)"/>
</svg>
