<svg xmlns="http://www.w3.org/2000/svg" width="87" height="87" viewBox="0 0 87 87">
  <metadata><?xpacket begin="﻿" id="W5M0MpCehiHzreSzNTczkc9d"?>
<x:xmpmeta xmlns:x="adobe:ns:meta/" x:xmptk="Adobe XMP Core 5.6-c138 79.159824, 2016/09/14-01:09:01        ">
   <rdf:RDF xmlns:rdf="http://www.w3.org/1999/02/22-rdf-syntax-ns#">
      <rdf:Description rdf:about=""/>
   </rdf:RDF>
</x:xmpmeta>
                                                                                                    
                                                                                                    
                                                                                                    
                                                                                                    
                                                                                                    
                                                                                                    
                                                                                                    
                                                                                                    
                                                                                                    
                                                                                                    
                                                                                                    
                                                                                                    
                                                                                                    
                                                                                                    
                                                                                                    
                                                                                                    
                                                                                                    
                                                                                                    
                                                                                                    
                                                                                                    
                           
<?xpacket end="w"?></metadata>
<defs>
    <style>
      .cls-1 {
        fill: #1d61b3;
        fill-rule: evenodd;
      }
    </style>
  </defs>
  <path id="icon" class="cls-1" d="M531,3417.98v-64.55h-5.613v-1.4a14.009,14.009,0,0,0-22.452-11.2,14.008,14.008,0,0,0-22.451,11.2v1.4H469.258v16.84H444v28.07h22.452v23.85H449.613V3425h42.1v-2.81H474.871v-4.21H531Zm-9.71-2.8,2.694-3.37,2.694,3.37H521.29Zm6.9-58.94v56.34l-2.806-3.51v-44.41h-2.806v44.41l-2.807,3.51v-56.34h8.419Zm-16.838-15.43a11.234,11.234,0,0,1,11.226,11.22v1.4H508.548v-1.4a13.944,13.944,0,0,0-3.52-9.26A11.121,11.121,0,0,1,511.355,3340.81Zm-5.613,11.22v1.4h-5.613v-1.4a11.181,11.181,0,0,1,2.806-7.4A11.176,11.176,0,0,1,505.742,3352.03Zm-22.452,0a11.234,11.234,0,0,1,11.226-11.22,11.121,11.121,0,0,1,6.327,1.96,13.945,13.945,0,0,0-3.521,9.26v1.4H483.29v-1.4Zm-11.226,4.21h8.42v5.61h2.806v-5.61h22.452v5.61h2.806v-5.61h8.42v58.94h-42.1v-16.84h22.451v-28.07H472.064v-14.03Zm0,65.95h-2.806v-23.85h2.806v23.85Zm-25.258-26.66v-22.45h47.71v22.45h-47.71Zm14.448-3.8,16.839-16.84,1.985,1.99-16.839,16.84Zm16.423-7.42a4.21,4.21,0,1,0,4.21,4.21A4.209,4.209,0,0,0,477.677,3384.31Zm0,5.61a1.405,1.405,0,1,1,1.4-1.4A1.4,1.4,0,0,1,477.677,3389.92Zm-14.032-14.03a4.21,4.21,0,1,0,4.21,4.21A4.21,4.21,0,0,0,463.645,3375.89Zm0,5.61a1.405,1.405,0,1,1,1.4-1.4A1.4,1.4,0,0,1,463.645,3381.5ZM444,3422.19h2.806V3425H444v-2.81Zm50.516,0h2.806V3425h-2.806v-2.81Zm28.065-63.14h2.806v2.8h-2.806v-2.8Z" transform="translate(-444 -3338)"/>
</svg>
