<svg xmlns="http://www.w3.org/2000/svg" width="60" height="60" viewBox="0 0 60 60">
  <metadata><?xpacket begin="﻿" id="W5M0MpCehiHzreSzNTczkc9d"?>
<x:xmpmeta xmlns:x="adobe:ns:meta/" x:xmptk="Adobe XMP Core 5.6-c138 79.159824, 2016/09/14-01:09:01        ">
   <rdf:RDF xmlns:rdf="http://www.w3.org/1999/02/22-rdf-syntax-ns#">
      <rdf:Description rdf:about=""/>
   </rdf:RDF>
</x:xmpmeta>
                                                                                                    
                                                                                                    
                                                                                                    
                                                                                                    
                                                                                                    
                                                                                                    
                                                                                                    
                                                                                                    
                                                                                                    
                                                                                                    
                                                                                                    
                                                                                                    
                                                                                                    
                                                                                                    
                                                                                                    
                                                                                                    
                                                                                                    
                                                                                                    
                                                                                                    
                                                                                                    
                           
<?xpacket end="w"?></metadata>
<defs>
    <style>
      .cls-1 {
        fill: #1d61b3;
        fill-rule: evenodd;
      }
    </style>
  </defs>
  <path id="_3" data-name="3" class="cls-1" d="M1350,5142.31v5.36a1.505,1.505,0,1,0,3.01,0v-5.36a8.772,8.772,0,0,1,8.77-8.76h7.59l-1.98,1.99a1.5,1.5,0,0,0,2.13,2.12l4.55-4.55a1.467,1.467,0,0,0,.45-1.06,1.507,1.507,0,0,0-.45-1.07l-4.55-4.54a1.5,1.5,0,0,0-2.12,2.12l1.99,1.98h-7.6A11.807,11.807,0,0,0,1350,5142.31Zm27.91,14.44h-26.29a1.507,1.507,0,0,0-1.51,1.5v26.24a1.509,1.509,0,0,0,1.51,1.51h26.29a1.5,1.5,0,0,0,1.51-1.51v-26.25A1.511,1.511,0,0,0,1377.91,5156.75Zm-1.51,26.24h-23.27v-23.24h23.29v23.24h-0.02Zm32.09-20.17a1.509,1.509,0,0,0-1.51,1.51v5.36a8.777,8.777,0,0,1-8.77,8.75h-7.6l1.99-1.98a1.5,1.5,0,1,0-2.12-2.12l-4.55,4.55a1.467,1.467,0,0,0-.45,1.06,1.507,1.507,0,0,0,.45,1.07l4.55,4.54a1.5,1.5,0,1,0,2.13-2.12l-1.98-1.98h7.59A11.79,11.79,0,0,0,1410,5169.7v-5.37A1.5,1.5,0,0,0,1408.49,5162.82Zm-0.11-36.81h-26.29a1.5,1.5,0,0,0-1.51,1.51v26.24a1.5,1.5,0,0,0,1.51,1.5h26.29a1.507,1.507,0,0,0,1.51-1.5v-26.24A1.515,1.515,0,0,0,1408.38,5126.01Zm-1.51,26.24H1383.6v-23.24h23.27v23.24Z" transform="translate(-1350 -5126)"/>
</svg>
