<svg xmlns="http://www.w3.org/2000/svg" width="60" height="60" viewBox="0 0 60 60">
  <metadata><?xpacket begin="﻿" id="W5M0MpCehiHzreSzNTczkc9d"?>
<x:xmpmeta xmlns:x="adobe:ns:meta/" x:xmptk="Adobe XMP Core 5.6-c138 79.159824, 2016/09/14-01:09:01        ">
   <rdf:RDF xmlns:rdf="http://www.w3.org/1999/02/22-rdf-syntax-ns#">
      <rdf:Description rdf:about=""/>
   </rdf:RDF>
</x:xmpmeta>
                                                                                                    
                                                                                                    
                                                                                                    
                                                                                                    
                                                                                                    
                                                                                                    
                                                                                                    
                                                                                                    
                                                                                                    
                                                                                                    
                                                                                                    
                                                                                                    
                                                                                                    
                                                                                                    
                                                                                                    
                                                                                                    
                                                                                                    
                                                                                                    
                                                                                                    
                                                                                                    
                           
<?xpacket end="w"?></metadata>
<defs>
    <style>
      .cls-1 {
        fill: #1d61b3;
        fill-rule: evenodd;
      }
    </style>
  </defs>
  <path id="_6" data-name="6" class="cls-1" d="M1380,5337a30,30,0,1,0,30,30A29.973,29.973,0,0,0,1380,5337Zm0,56.47a26.47,26.47,0,1,1,26.47-26.47A26.663,26.663,0,0,1,1380,5393.47Zm3.18-32.12a4.924,4.924,0,0,0-6.71,0l-6.71,6.71a1.75,1.75,0,0,0,2.48,2.47l6.7-6.71a1.6,1.6,0,0,1,1.77,0l6.7,6.71a2.131,2.131,0,0,0,1.41.35,3.509,3.509,0,0,0,1.06-.35,1.7,1.7,0,0,0,0-2.47Z" transform="translate(-1350 -5337)"/>
</svg>
