<?xml version="1.0" encoding="utf-8"?>
<!-- Generator: Adobe Illustrator 18.0.0, SVG Export Plug-In . SVG Version: 6.00 Build 0)  -->
<!DOCTYPE svg PUBLIC "-//W3C//DTD SVG 1.1//EN" "http://www.w3.org/Graphics/SVG/1.1/DTD/svg11.dtd">
<svg version="1.1" id="Layer_1" xmlns="http://www.w3.org/2000/svg" xmlns:xlink="http://www.w3.org/1999/xlink" x="0px" y="0px"
	 viewBox="0 0 501.9 501.7" enable-background="new 0 0 501.9 501.7" xml:space="preserve">
<g>
	<defs>
		<rect id="SVGID_1_" width="501.9" height="501.7"/>
	</defs>
	<clipPath id="SVGID_2_">
		<use xlink:href="#SVGID_1_"  overflow="visible"/>
	</clipPath>
	<path clip-path="url(#SVGID_2_)" fill="#10B198" d="M250.8,315.7c-78.5,0-157,0-235.5,0c-12.3,0-15.4-3-15.4-15.3
		c0-95.3,0-190.6,0-286C0,3.4,3.4,0,14.7,0c120,0,240,0,359.9,0c38.2,0,76.3,0,114.5,0c8.4,0,12.7,4.3,12.7,12.5
		c0,64.2-0.1,128.3-0.1,192.5c0,32.3,0,64.7,0,97c0,10-3.7,13.7-13.4,13.7C409.1,315.7,330,315.7,250.8,315.7 M129.7,21.2
		c0,9,0.1,17.7,0,26.3c-0.2,8.2-7.2,13.2-14.3,10.4c-4.5-1.8-6.6-5.3-6.6-10.2c0-8.8,0-17.5,0-26.4H21.2v273.2h459.3V21.2h-87.5
		c0,8.9,0,17.6,0,26.2c0,4.8-2,8.4-6.4,10.3c-7.2,3.1-14.3-2.1-14.5-10.6c-0.1-8.6,0-17.2,0-26H129.7z"/>
	<path clip-path="url(#SVGID_2_)" fill="#10B198" d="M296.9,359.6c0,19.7,0,38.7,0,57.7c0,23.8,0,47.7,0,71.5
		c0,8.9-3.8,12.9-12.7,12.9c-21.8,0-43.7,0-65.5,0c-8.9,0-12.8-3.9-12.8-12.8c0-41.2,0-82.3,0-123.5c0-1.7,0-3.3,0-5.8h-6.4
		c-51.8,0-103.7,0-155.5,0c-1.7,0-3.4,0.1-5-0.1c-5.9-0.8-9.8-5.3-9.6-10.9c0.3-5.6,4.5-9.8,10.5-9.8c10.3-0.1,20.7-0.1,31-0.1
		c70.2-0.1,140.3-0.2,210.5-0.2c60.2,0,120.3,0.1,180.5,0.2c8.9,0,14,5.4,12.2,12.8c-1.3,5.4-5.2,8.1-12.2,8.1c-25,0-50,0-75,0
		c-28.3,0-56.7,0-85,0C300.4,359.6,299,359.6,296.9,359.6 M275.6,360.2h-48.3v120.5h48.3V360.2z"/>
</g>
</svg>
