<?xml version="1.0" encoding="utf-8"?>
<!-- Generator: Adobe Illustrator 18.0.0, SVG Export Plug-In . SVG Version: 6.00 Build 0)  -->
<!DOCTYPE svg PUBLIC "-//W3C//DTD SVG 1.1//EN" "http://www.w3.org/Graphics/SVG/1.1/DTD/svg11.dtd">
<svg version="1.1" id="Layer_1" xmlns="http://www.w3.org/2000/svg" xmlns:xlink="http://www.w3.org/1999/xlink" x="0px" y="0px"
	 viewBox="0 0 501.9 315.7" enable-background="new 0 0 501.9 315.7" xml:space="preserve">
<g id="Layer_4">
	<g id="Layer_2">
	</g>
</g>
<g id="Layer_3">
</g>
<path fill="#13B299" d="M489.1,0L14.7,0C3.4,0,0,3.4,0,14.5c0,95.3,0,190.6,0,286c0,12.3,3.1,15.3,15.4,15.3l472.9,0
	c9.7,0,13.4-3.8,13.4-13.7l0.1-289.5C501.9,4.4,497.5,0,489.1,0 M480.4,294.4H21.2V21.2l459.3,0V294.4z"/>
<path fill="#13B299" d="M62.4,47.8c0,5.9-4.8,10.6-10.6,10.6s-10.6-4.8-10.6-10.6s4.8-10.6,10.6-10.6S62.4,42,62.4,47.8"/>
<path fill="#13B299" d="M62.4,259.8c0,5.9-4.8,10.6-10.6,10.6s-10.6-4.8-10.6-10.6s4.8-10.6,10.6-10.6S62.4,253.9,62.4,259.8"/>
<path fill="#13B299" d="M460.4,47.8c0,5.9-4.8,10.6-10.6,10.6s-10.6-4.8-10.6-10.6s4.8-10.6,10.6-10.6S460.4,42,460.4,47.8"/>
<path fill="#13B299" d="M460.4,259.8c0,5.9-4.8,10.6-10.6,10.6s-10.6-4.8-10.6-10.6s4.8-10.6,10.6-10.6S460.4,253.9,460.4,259.8"/>
<path fill="#13B299" d="M282.8,203.7l-6.2-16.2h-52.4l-6.2,16.5c-2.4,6.4-4.5,10.8-6.2,13.1c-1.7,2.3-4.5,3.4-8.3,3.4
	c-3.3,0-6.2-1.2-8.7-3.6c-2.5-2.4-3.8-5.1-3.8-8.2c0-1.8,0.3-3.6,0.9-5.4c0.6-1.9,1.6-4.5,2.9-7.8l33-83.7c0.9-2.4,2.1-5.3,3.4-8.7
	c1.3-3.4,2.7-6.2,4.2-8.4c1.5-2.2,3.5-4,5.9-5.4c2.4-1.4,5.4-2.1,9-2.1c3.6,0,6.7,0.7,9.1,2.1c2.4,1.4,4.4,3.1,5.9,5.3
	c1.5,2.2,2.8,4.5,3.8,7c1,2.5,2.3,5.8,3.9,10l33.7,83.1c2.6,6.3,4,10.9,4,13.8c0,3-1.2,5.7-3.7,8.2c-2.5,2.5-5.5,3.7-9,3.7
	c-2.1,0-3.8-0.4-5.3-1.1c-1.5-0.7-2.7-1.7-3.7-3c-1-1.3-2.1-3.2-3.2-5.8C284.6,208,283.7,205.7,282.8,203.7 M231.2,167.9h38.5
	l-19.4-53.2L231.2,167.9z"/>
<rect x="0" y="-4" fill="none" width="501.9" height="315.7"/>
</svg>
