<?xml version="1.0" encoding="utf-8"?>
<!-- Generator: Adobe Illustrator 18.0.0, SVG Export Plug-In . SVG Version: 6.00 Build 0)  -->
<!DOCTYPE svg PUBLIC "-//W3C//DTD SVG 1.1//EN" "http://www.w3.org/Graphics/SVG/1.1/DTD/svg11.dtd">
<svg version="1.1" id="Layer_1" xmlns="http://www.w3.org/2000/svg" xmlns:xlink="http://www.w3.org/1999/xlink" x="0px" y="0px"
	 viewBox="0 0 501.5 501.6" enable-background="new 0 0 501.5 501.6" xml:space="preserve">
<g>
	<defs>
		<rect id="SVGID_1_" width="501.5" height="501.6"/>
	</defs>
	<clipPath id="SVGID_2_">
		<use xlink:href="#SVGID_1_"  overflow="visible"/>
	</clipPath>
	<path clip-path="url(#SVGID_2_)" fill="#10B198" d="M0,255.8C0.2,133.2,83.4,30.2,197.7,4.8c11-2.4,22.2-4,33.5-4.7
		c16.7-1.1,30.9,5.3,42.8,17.2c23.7,23.7,47.4,47.3,71,71c45.2,45.2,90.1,90.7,135.7,135.5c16.9,16.6,23.4,35.3,20.1,58.8
		c-5.1,36.1-16.8,69.6-36.5,100.2c-36.4,56.6-87.3,93.6-152.4,110.7c-33.8,8.9-68.1,10.3-102.7,4.6c-33.8-5.6-65.8-16.1-94.8-34.4
		c-52.2-33-86.7-79.4-103.8-138.7C3.7,301.3,0.2,277.1,0,255.8 M256.2,480.7c10.1-1.2,24.7-2,38.9-4.6c54-10,98.4-36.6,133.4-78.9
		c30.3-36.6,46.6-79,51.4-125.9c1.3-12.7-2.4-19.5-14-25.1c-3.7-1.8-7.7-3.1-11.7-4c-7.4-1.7-15-2.7-22.3-4.6
		c-91.2-23-157.4-98.9-171.3-184.8c-1.4-8.9-3.7-17.6-9.9-24.4c-2.2-2.4-5.3-4.3-8.4-5.5c-8.1-3.1-16.5-0.8-24.5,0.4
		c-43.3,6.5-82.2,23.1-115.7,51.6c-50.1,42.7-76.6,97.3-80.6,162.8c-1.6,26.4,2.1,52.4,9.1,77.9C42.3,358.2,63.4,395,97,424.1
		C141.3,462.6,194.1,478.1,256.2,480.7 M438.9,215.5c-50.8-51.1-101.6-102.2-152.4-153.3C300.1,133.7,358.7,198.7,438.9,215.5"/>
</g>
</svg>
