<?xml version="1.0" encoding="utf-8"?>
<!-- Generator: Adobe Illustrator 18.0.0, SVG Export Plug-In . SVG Version: 6.00 Build 0)  -->
<!DOCTYPE svg PUBLIC "-//W3C//DTD SVG 1.1//EN" "http://www.w3.org/Graphics/SVG/1.1/DTD/svg11.dtd">
<svg version="1.1" id="Layer_1" xmlns="http://www.w3.org/2000/svg" xmlns:xlink="http://www.w3.org/1999/xlink" x="0px" y="0px"
	 viewBox="0 0 501.6 501.5" enable-background="new 0 0 501.6 501.5" xml:space="preserve">
<rect x="233.3" y="439.1" fill="none" width="41.1" height="40.9"/>
<path fill="none" d="M170.7,480.4h41.2c0-2.3,0-4.3,0-6.2c0-14.5,0-29.1,0-43.6c0-8.7,3.8-12.5,12.6-12.5c19.4,0,38.8,0,58.3,0
	c9.2,0,13.2,4.6,13.1,13.6c-0.2,15.5-0.1,31-0.2,46.5c0,0.7,0.3,1.5,0.5,2.3H337V21.1H170.7V480.4z M211.9,281.7
	c0.3-5.9,5.2-10.2,11.6-10.1c6.7,0,11.6,4.6,11.5,10.7c-0.1,6.1-5.1,10.5-11.8,10.4C216.6,292.6,211.7,287.8,211.9,281.7z
	 M223.4,313.5c6.8,0,11.7,4.4,11.7,10.4c0,6.1-4.9,10.4-11.7,10.4c-6.7,0-11.6-4.6-11.4-10.6C212.1,317.7,216.8,313.5,223.4,313.5z
	 M223.3,376.2c-6.7-0.1-11.5-4.7-11.3-10.8c0.2-6.1,5-10.2,12-10c6.5,0.1,11.2,4.6,11.1,10.5C235,371.9,230,376.3,223.3,376.2z
	 M284.3,376.2c-6.8,0.1-11.7-4.2-11.8-10.3c-0.1-6.1,4.8-10.5,11.6-10.5c6.8,0,11.6,4.4,11.5,10.5
	C295.5,371.8,290.8,376.1,284.3,376.2z M284.1,334.3c-6.7,0-11.6-4.5-11.5-10.5c0.1-6.1,5-10.4,11.8-10.3
	c6.5,0.1,11.2,4.3,11.3,10.3C295.7,329.9,290.8,334.3,284.1,334.3z M272.5,282.1c0-5.9,4.7-10.4,11.2-10.5
	c6.7-0.1,11.7,4.2,11.9,10.3c0.2,6-4.8,10.7-11.4,10.8C277.5,292.7,272.6,288.2,272.5,282.1z M284.5,62.7
	c6.5,0.1,11.1,4.5,11.1,10.5c0,6.1-4.9,10.4-11.7,10.3c-6.7,0-11.6-4.6-11.4-10.7C272.8,66.8,277.7,62.6,284.5,62.7z M284.2,104.6
	c6.7,0,11.6,4.5,11.5,10.6c-0.1,6-4.9,10.2-11.4,10.2c-6.8,0-11.7-4.3-11.7-10.4C272.5,108.9,277.4,104.6,284.2,104.6z M295.6,156.8
	c0,6-5.1,10.6-11.7,10.5c-6.6-0.1-11.6-4.8-11.4-10.8c0.2-6.1,5.2-10.4,11.9-10.3C290.9,146.3,295.6,150.8,295.6,156.8z
	 M284.2,188.1c6.5,0,11.3,4.3,11.4,10.2c0.1,6.1-4.7,10.6-11.5,10.6c-6.7,0-11.7-4.4-11.6-10.4C272.6,192.4,277.5,188.1,284.2,188.1
	z M284,229.9c6.8,0,11.7,4.4,11.6,10.4c-0.1,6.1-4.9,10.4-11.7,10.4c-6.6,0-11.6-4.7-11.4-10.7C272.7,234.2,277.5,230,284,229.9z
	 M223.5,208.9c-6.8,0-11.6-4.5-11.5-10.5c0.1-6.1,5-10.3,11.8-10.3c6.4,0.1,11.2,4.4,11.3,10.3C235.1,204.4,230.1,209,223.5,208.9z
	 M223.4,167.3c-6.7,0-11.6-4.6-11.5-10.7c0.1-6.1,5.1-10.5,11.8-10.3c6.4,0.1,11.2,4.5,11.2,10.5
	C235.1,162.7,230.1,167.3,223.4,167.3z M223.7,125.4c-6.8,0.1-11.7-4.2-11.7-10.4c-0.1-5.9,4.7-10.3,11.1-10.4
	c6.9-0.1,11.8,4,12,10.1C235.2,120.7,230.4,125.3,223.7,125.4z M224.2,62.7c6.4,0.2,11.1,4.8,10.8,10.7c-0.2,6.3-5.3,10.3-12.5,10
	c-6.1-0.2-10.7-4.7-10.6-10.4C212,66.8,217.1,62.5,224.2,62.7z M223.1,230c6.8-0.1,11.8,4.1,11.9,10.2c0.1,6.1-4.7,10.6-11.4,10.7
	c-6.7,0.1-11.7-4.4-11.7-10.5C211.9,234.4,216.7,230.1,223.1,230z"/>
<path fill="none" d="M23.8,109.5c0,122.1,0,244.2-0.1,366.3c0,4.2,1.3,5.1,5.3,5.1c38-0.1,76.1-0.1,114.1-0.1c1.8,0,3.5,0,5.6,0
	V104.9H24.1C24,106.6,23.8,108,23.8,109.5z M108.4,418c-7,0.1-14,0-21.1,0c-6.7,0-13.4,0.1-20.1,0c-7.3-0.1-12.2-4.4-12-10.7
	c0.1-6.1,4.8-10.3,11.9-10.3c13.7-0.1,27.4-0.1,41.1,0c7.1,0,11.6,4.2,11.7,10.4C120,413.7,115.5,417.9,108.4,418z M108.8,376.2
	c-14.2,0.1-28.3,0.1-42.5,0c-6.5,0-11.1-4.6-11.1-10.5c0-5.9,4.6-10.2,11.3-10.3c7-0.1,14,0,21,0c7.2,0,14.3-0.1,21.5,0
	c6.7,0.1,11,4.3,11,10.4C119.9,371.9,115.5,376.1,108.8,376.2z M108.9,334.3c-14.2,0.1-28.4,0.1-42.6,0c-6.6,0-11.2-4.5-11.1-10.5
	c0.1-5.9,4.7-10.2,11.3-10.3c7-0.1,14,0,21.1,0s14-0.1,21.1,0c6.8,0.1,11.2,4.2,11.3,10.3C120,329.9,115.7,334.2,108.9,334.3z
	 M67.3,146.2c6.9-0.1,13.7,0,20.6,0c6.9,0,13.7-0.1,20.6,0c7,0.1,11.6,4.4,11.5,10.6c0,6.2-4.7,10.4-11.7,10.4
	c-13.7,0.1-27.4,0.1-41.1,0c-7.1-0.1-11.8-4.3-11.9-10.3C55.1,150.7,59.9,146.3,67.3,146.2z M66.4,188.1c14.2-0.1,28.4-0.1,42.6,0
	c6.4,0,10.8,4.3,10.9,10.2c0.1,6.2-4.2,10.5-10.9,10.6c-7.2,0.1-14.4,0-21.5,0c-7,0-14,0.1-21.1,0c-6.6-0.1-11.3-4.5-11.3-10.4
	C55.2,192.6,59.8,188.2,66.4,188.1z M66.2,230c7-0.1,14,0,21.1,0c7.2,0,14.4-0.1,21.6,0c6.8,0.1,11.1,4.2,11.1,10.4
	c0,6.1-4.4,10.4-11.1,10.4c-14.2,0.1-28.4,0.1-42.6,0c-6.3,0-10.8-4.4-11-10.2C55,234.7,59.7,230.1,66.2,230z M67.5,271.6
	c6.9,0,13.7,0,20.6,0c6.5,0,13.1-0.1,19.6,0c7.6,0.1,12.2,4,12.2,10.4c0.1,6.4-4.5,10.6-12,10.6c-13.6,0.1-27.1,0.1-40.7,0
	c-7.3,0-12.2-4.4-12.1-10.6C55.2,275.8,60.2,271.7,67.5,271.6z"/>
<path fill="none" d="M478.1,146.1c-38.4,0.2-76.7,0.1-115.1,0.1c-1.4,0-2.8,0.2-4.3,0.3v334c1.4,0.1,2.3,0.2,3.3,0.2
	c39,0,78-0.1,117.1,0.1c4.7,0,4.7-2.3,4.7-5.7c0-107.8-0.1-215.5,0-323.3C483.9,147.4,482.7,146.1,478.1,146.1z M401.1,188.1
	c14-0.1,28.1-0.1,42.1,0c6.6,0,11.3,4.5,11.2,10.4c0,5.9-4.6,10.2-11.3,10.3c-7.2,0.1-14.4,0-21.6,0v0c-6.9,0-13.7,0.1-20.6,0
	c-6.9-0.1-11.2-4-11.3-10.2C389.7,192.4,394.1,188.2,401.1,188.1z M400.8,230c7-0.1,14,0,21,0v0c7.2,0,14.3-0.1,21.5,0
	c6.6,0.1,11.2,4.5,11.2,10.4c0,5.9-4.7,10.4-11.2,10.4c-14.2,0.1-28.3,0.1-42.5,0c-6.6,0-11.1-4.4-11.1-10.4
	C389.7,234.2,394,230.1,400.8,230z M401.9,271.6c6.7,0,13.4,0,20,0c6.8,0,13.7-0.1,20.5,0c7.3,0.1,12.1,4.4,12,10.7
	c-0.1,6.1-4.8,10.3-11.8,10.3c-13.7,0.1-27.4,0.1-41,0c-7.4,0-11.9-4.3-11.9-10.7C389.8,275.6,394.4,271.7,401.9,271.6z M442.8,418
	c-13.8,0.1-27.7,0.1-41.5,0c-7.1-0.1-11.6-4.2-11.6-10.5c0-6.3,4.4-10.4,11.5-10.5c7-0.1,14,0,21,0c6.8,0,13.7-0.1,20.5,0
	c7,0.1,11.7,4.4,11.7,10.5C454.5,413.5,449.8,418,442.8,418z M389.7,365.8c0-6.2,4.2-10.3,11-10.4c7.2-0.1,14.3,0,21.5,0
	c7,0,14-0.1,21,0c6.6,0.1,11.2,4.5,11.2,10.3c0,5.9-4.6,10.4-11.2,10.4c-14.2,0.1-28.3,0.1-42.5,0
	C394.1,376.1,389.8,371.9,389.7,365.8z M442.9,334.3c-7.2,0.1-14.3,0-21.5,0c-6.7,0-13.3,0.1-20,0c-7.3-0.1-11.6-4-11.6-10.3
	c0-6.3,4.4-10.4,11.5-10.5c13.8-0.1,27.7-0.1,41.5,0c7,0,11.7,4.3,11.8,10.3C454.5,329.9,449.8,334.2,442.9,334.3z"/>
<path fill="#10B198" d="M490.2,125.3c-41.9,0.2-83.8,0.1-125.7,0.1c-1.8,0-3.6,0-5.9,0c-0.1-1.9-0.2-3.7-0.2-5.4
	c0.1-35.9,0.1-71.8,0.2-107.6c0-5.8-2.7-9.9-7.8-12.4h-194c-5.9,2.8-7.8,7.6-7.7,13.9c0.2,21.4,0.1,42.7,0.1,64.1c0,1.6,0,3.2,0,5.5
	c-2.3,0-4.2,0-6.1,0c-42.1,0-84.2,0.1-126.2-0.1c-6.3,0-11.1,1.8-13.9,7.7v410.4h501.6V132.3C501.2,127,496.6,125.2,490.2,125.3z
	 M148.8,480.8c-2.1,0-3.9,0-5.6,0c-38,0-76.1-0.1-114.1,0.1c-4,0-5.3-1-5.3-5.1c0.1-122.1,0.1-244.2,0.1-366.3
	c0-1.4,0.2-2.9,0.3-4.6h124.7V480.8z M274.3,480h-41.1v-40.9h41.1V480z M337,480.5h-40.7c-0.2-0.8-0.5-1.6-0.5-2.3
	c0-15.5-0.1-31,0.2-46.5c0.1-9.1-3.9-13.6-13.1-13.6c-19.4,0-38.8,0-58.3,0c-8.8,0-12.6,3.7-12.6,12.5c-0.1,14.5,0,29.1,0,43.6
	c0,1.9,0,3.9,0,6.2h-41.2V21.1H337V480.5z M483.8,475.1c0,3.4,0,5.7-4.7,5.7c-39-0.2-78-0.1-117.1-0.1c-1,0-1.9-0.1-3.3-0.2v-334
	c1.5-0.1,2.9-0.3,4.3-0.3c38.4,0,76.7,0.1,115.1-0.1c4.6,0,5.7,1.3,5.7,5.8C483.7,259.6,483.8,367.4,483.8,475.1z"/>
<path fill="#10B198" d="M284.5,146.2c-6.7-0.1-11.7,4.2-11.9,10.3c-0.2,6,4.8,10.7,11.4,10.8c6.6,0.1,11.7-4.5,11.7-10.5
	C295.6,150.8,290.9,146.3,284.5,146.2z"/>
<path fill="#10B198" d="M284.2,292.7c6.6-0.1,11.6-4.7,11.4-10.8c-0.2-6.1-5.2-10.4-11.9-10.3c-6.4,0.1-11.2,4.6-11.2,10.5
	C272.6,288.2,277.5,292.7,284.2,292.7z"/>
<path fill="#10B198" d="M223.2,292.7c6.7,0.1,11.7-4.3,11.8-10.4c0.1-6-4.9-10.6-11.5-10.7c-6.4,0-11.3,4.3-11.6,10.1
	C211.7,287.8,216.6,292.6,223.2,292.7z"/>
<path fill="#10B198" d="M223.8,146.2c-6.7-0.1-11.7,4.2-11.8,10.3c-0.1,6.1,4.8,10.7,11.5,10.7c6.7,0,11.7-4.5,11.6-10.6
	C235,150.8,230.2,146.3,223.8,146.2z"/>
<path fill="#10B198" d="M223.3,334.3c6.8,0,11.7-4.3,11.7-10.4c0-6.1-4.9-10.5-11.7-10.4c-6.5,0-11.3,4.2-11.4,10.2
	C211.8,329.7,216.6,334.3,223.3,334.3z"/>
<path fill="#10B198" d="M223.9,355.4c-6.9-0.1-11.8,3.9-12,10c-0.2,6.1,4.6,10.7,11.3,10.8c6.8,0.1,11.7-4.3,11.8-10.4
	C235.1,359.9,230.4,355.5,223.9,355.4z"/>
<path fill="#10B198" d="M222.5,83.5c7.2,0.3,12.3-3.8,12.5-10c0.2-5.9-4.5-10.5-10.8-10.7c-7.1-0.2-12.2,4.1-12.2,10.3
	C211.9,78.8,216.4,83.2,222.5,83.5z"/>
<path fill="#10B198" d="M283.9,250.8c6.8,0,11.6-4.3,11.7-10.4c0.1-6-4.8-10.4-11.6-10.4c-6.5,0-11.3,4.2-11.5,10.1
	C272.4,246.1,277.3,250.8,283.9,250.8z"/>
<path fill="#10B198" d="M223.6,250.8c6.7-0.1,11.6-4.6,11.4-10.7c-0.1-6-5.1-10.3-11.9-10.2c-6.5,0.1-11.2,4.5-11.2,10.4
	C211.9,246.4,216.9,250.9,223.6,250.8z"/>
<path fill="#10B198" d="M223.8,188.1c-6.8-0.1-11.7,4.2-11.8,10.3c-0.1,6,4.8,10.5,11.5,10.5c6.7,0,11.7-4.5,11.6-10.5
	C235,192.5,230.2,188.2,223.8,188.1z"/>
<path fill="#10B198" d="M223.1,104.6c-6.5,0.1-11.2,4.5-11.1,10.4c0.1,6.1,4.9,10.4,11.7,10.4c6.7-0.1,11.5-4.7,11.4-10.7
	C234.8,108.6,229.9,104.5,223.1,104.6z"/>
<path fill="#10B198" d="M284.3,313.5c-6.8-0.1-11.7,4.2-11.8,10.3c-0.1,6.1,4.8,10.5,11.5,10.5c6.8,0,11.6-4.4,11.5-10.5
	C295.5,317.8,290.9,313.6,284.3,313.5z"/>
<path fill="#10B198" d="M284.1,355.4c-6.8,0-11.6,4.4-11.6,10.5c0.1,6.1,5,10.4,11.8,10.3c6.5-0.1,11.2-4.4,11.3-10.3
	C295.7,359.8,290.9,355.4,284.1,355.4z"/>
<path fill="#10B198" d="M284.3,125.4c6.5,0,11.2-4.3,11.4-10.2c0.1-6.1-4.7-10.6-11.5-10.6c-6.8,0-11.7,4.4-11.6,10.4
	C272.6,121.1,277.5,125.4,284.3,125.4z"/>
<path fill="#10B198" d="M284.2,208.9c6.7,0,11.6-4.6,11.5-10.6c-0.1-5.9-4.9-10.2-11.4-10.2c-6.8,0-11.6,4.3-11.7,10.4
	C272.5,204.5,277.4,209,284.2,208.9z"/>
<path fill="#10B198" d="M283.9,83.5c6.8,0,11.7-4.2,11.7-10.3c0-5.9-4.7-10.4-11.1-10.5c-6.8-0.1-11.7,4.1-11.9,10.1
	C272.3,78.9,277.2,83.5,283.9,83.5z"/>
<path fill="#10B198" d="M67.1,167.2c13.7,0.1,27.4,0.1,41.1,0c7.1,0,11.7-4.3,11.7-10.4c0-6.2-4.5-10.5-11.5-10.6
	c-6.9-0.1-13.7,0-20.6,0c-6.9,0-13.7-0.1-20.6,0c-7.3,0.1-12.2,4.4-12.1,10.7C55.3,163,60,167.2,67.1,167.2z"/>
<path fill="#10B198" d="M67.3,292.6c13.6,0.1,27.1,0.1,40.7,0c7.4,0,12.1-4.3,12-10.6c-0.1-6.4-4.7-10.3-12.2-10.4
	c-6.5-0.1-13.1,0-19.6,0c-6.9,0-13.7,0-20.6,0c-7.4,0-12.3,4.2-12.3,10.4C55.1,288.2,60,292.6,67.3,292.6z"/>
<path fill="#10B198" d="M108.2,397c-13.7-0.1-27.4-0.1-41.1,0c-7.1,0-11.8,4.3-11.9,10.3c-0.1,6.2,4.7,10.6,12,10.7
	c6.7,0.1,13.4,0,20.1,0c7,0,14,0.1,21.1,0c7.1-0.1,11.6-4.3,11.5-10.6C119.9,401.2,115.4,397.1,108.2,397z"/>
<path fill="#10B198" d="M108.7,313.5c-7-0.1-14,0-21.1,0s-14-0.1-21.1,0c-6.6,0.1-11.3,4.3-11.3,10.3c-0.1,5.9,4.5,10.4,11.1,10.5
	c14.2,0.1,28.4,0.1,42.6,0c6.7,0,11.1-4.3,11-10.5C119.9,317.7,115.4,313.6,108.7,313.5z"/>
<path fill="#10B198" d="M66.5,208.9c7,0.1,14,0,21.1,0c7.2,0,14.4,0.1,21.5,0c6.7-0.1,11-4.5,10.9-10.6c-0.1-5.9-4.5-10.1-10.9-10.2
	c-14.2-0.1-28.4-0.1-42.6,0c-6.6,0-11.2,4.4-11.2,10.4C55.2,204.4,59.8,208.8,66.5,208.9z"/>
<path fill="#10B198" d="M66.2,250.8c14.2,0.1,28.4,0.1,42.6,0c6.7,0,11.1-4.3,11.1-10.4c0-6.1-4.3-10.3-11.1-10.4
	c-7.2-0.1-14.4,0-21.6,0c-7,0-14-0.1-21.1,0c-6.5,0.1-11.2,4.7-11,10.6C55.3,246.3,59.9,250.7,66.2,250.8z"/>
<path fill="#10B198" d="M108.9,355.4c-7.2-0.1-14.3,0-21.5,0c-7,0-14-0.1-21,0c-6.7,0.1-11.2,4.3-11.3,10.3
	c0,5.9,4.6,10.5,11.1,10.5c14.2,0.1,28.3,0.1,42.5,0c6.7,0,11.1-4.3,11.2-10.3C120,359.7,115.7,355.5,108.9,355.4z"/>
<path fill="#10B198" d="M401.6,292.6c13.7,0.1,27.4,0.1,41,0c7,0,11.7-4.3,11.8-10.3c0.1-6.2-4.7-10.6-12-10.7
	c-6.8-0.1-13.7,0-20.5,0c-6.7,0-13.4,0-20,0c-7.5,0.1-12.1,4-12.2,10.3C389.7,288.4,394.2,292.6,401.6,292.6z"/>
<path fill="#10B198" d="M442.8,397c-6.8-0.1-13.7,0-20.5,0c-7,0-14-0.1-21,0c-7.1,0.1-11.5,4.3-11.5,10.5c0,6.2,4.4,10.4,11.6,10.5
	c13.8,0.1,27.7,0.1,41.5,0c6.9-0.1,11.7-4.5,11.6-10.5C454.4,401.4,449.7,397.1,442.8,397z"/>
<path fill="#10B198" d="M401.1,208.9c6.9,0.1,13.7,0,20.6,0v0c7.2,0,14.4,0.1,21.6,0c6.7-0.1,11.3-4.4,11.3-10.3
	c0-5.9-4.7-10.4-11.2-10.4c-14-0.1-28.1-0.1-42.1,0c-7.1,0-11.5,4.3-11.4,10.6C389.8,204.9,394.1,208.8,401.1,208.9z"/>
<path fill="#10B198" d="M442.7,313.5c-13.8,0-27.7-0.1-41.5,0c-7.1,0-11.5,4.2-11.5,10.5c0,6.4,4.3,10.2,11.6,10.3
	c6.7,0.1,13.3,0,20,0c7.2,0,14.3,0.1,21.5,0c6.9-0.1,11.7-4.4,11.6-10.4C454.4,317.8,449.7,313.5,442.7,313.5z"/>
<path fill="#10B198" d="M400.8,376.2c14.2,0.1,28.3,0.1,42.5,0c6.5,0,11.2-4.5,11.2-10.4c0-5.9-4.6-10.2-11.2-10.3c-7-0.1-14,0-21,0
	c-7.2,0-14.3-0.1-21.5,0c-6.8,0.1-11,4.2-11,10.4C389.8,371.9,394.1,376.1,400.8,376.2z"/>
<path fill="#10B198" d="M400.8,250.8c14.2,0.1,28.3,0.1,42.5,0c6.5,0,11.2-4.5,11.2-10.4c0-5.9-4.6-10.2-11.2-10.4
	c-7.2-0.1-14.3,0-21.5,0v0c-7,0-14-0.1-21,0c-6.8,0.1-11.1,4.2-11.1,10.4C389.7,246.4,394.2,250.7,400.8,250.8z"/>
</svg>
