<?xml version="1.0" encoding="utf-8"?>
<!-- Generator: Adobe Illustrator 18.0.0, SVG Export Plug-In . SVG Version: 6.00 Build 0)  -->
<!DOCTYPE svg PUBLIC "-//W3C//DTD SVG 1.1//EN" "http://www.w3.org/Graphics/SVG/1.1/DTD/svg11.dtd">
<svg version="1.1" id="Layer_1" xmlns="http://www.w3.org/2000/svg" xmlns:xlink="http://www.w3.org/1999/xlink" x="0px" y="0px"
	 viewBox="0 0 512 487.9" enable-background="new 0 0 512 487.9" xml:space="preserve">
<g>
	<defs>
		<rect id="SVGID_1_" width="512" height="487.9"/>
	</defs>
	<clipPath id="SVGID_2_">
		<use xlink:href="#SVGID_1_"  overflow="visible"/>
	</clipPath>
	<path clip-path="url(#SVGID_2_)" fill="#10B198" d="M0,214.9c2.3-2.6,4.3-5.5,6.9-7.7C86.1,140.1,165.3,73.2,244.4,5.9
		c9.7-8.2,14.6-7.6,23.5,0.1c39.5,34,79.5,67.5,119.3,101.2c39.9,33.8,79.9,67.6,119.7,101.4c1.9,1.6,3.4,3.5,5.1,5.3v7
		c-1.8,2.1-3.3,4.7-5.6,6.1c-4.5,2.7-8.9,1.4-12.8-2c-7.5-6.5-15.1-12.8-23.7-20c0,3.2,0,5.1,0,7c0,87,0,173.9,0,260.9
		c0,9.4-1.4,11.5-9.9,15H52c-8.4-3.6-9.8-5.8-9.8-15.1c0-87.4,0-174.9,0-262.3c0-1.4-0.1-2.8-0.3-5.2c-7.8,6.6-14.8,12.5-21.9,18.5
		c-8.4,7-14,6.2-20-2.9C0,218.9,0,216.9,0,214.9 M448.6,466c0.1-1.9,0.3-3.2,0.3-4.5c0-90,0-180-0.1-270c0-2.4-1.5-5.5-3.3-7.1
		c-62-52.7-124.1-105.2-186.1-157.8c-2.7-2.3-4.2-2-6.6,0.1c-62,52.6-124.1,105.1-186,157.8c-1.8,1.5-3.1,4.7-3.1,7.2
		c-0.2,89.7-0.2,179.3-0.2,269c0,1.7,0.2,3.5,0.3,5.2H255c0-2.1,0-3.9,0-5.7c0-57.3,0-114.7,0-172c0-9.8,3.4-13.3,13.1-13.3
		c34.2,0,68.3,0,102.5,0c9.8,0,13.3,3.4,13.3,13.1c0,57.3,0,114.7,0,172c0,1.9,0,3.9,0,5.9H448.6z M362.5,296.3h-86v169.5h86V296.3z
		"/>
	<path clip-path="url(#SVGID_2_)" fill="#0DB098" d="M170.5,274.9c10.3,0,20.6,0,31,0c8,0,12.4,4.4,12.4,12.3c0,20-0.1,40-0.2,59.9
		c0,10.1-3.8,13.7-13.9,13.7c-19.8,0-39.6,0-59.4,0c-9,0-13-4-13-13.2c0-19.8,0-39.6,0-59.5c0-9.7,3.6-13.3,13.2-13.4
		C150.5,274.8,160.5,274.9,170.5,274.9 M148.9,339.8c14,0,27.3,0.1,40.6-0.2c1,0,2.7-2.5,2.8-3.9c0.3-7.7,0.1-15.3,0.1-23
		c0-5.4,0-10.9,0-16.4h-43.5V339.8z"/>
</g>
</svg>
