<?xml version="1.0" encoding="utf-8"?>
<!-- Generator: Adobe Illustrator 18.0.0, SVG Export Plug-In . SVG Version: 6.00 Build 0)  -->
<!DOCTYPE svg PUBLIC "-//W3C//DTD SVG 1.1//EN" "http://www.w3.org/Graphics/SVG/1.1/DTD/svg11.dtd">
<svg version="1.1" id="Layer_1" xmlns="http://www.w3.org/2000/svg" xmlns:xlink="http://www.w3.org/1999/xlink" x="0px" y="0px"
	 viewBox="0 0 512 238" enable-background="new 0 0 512 238" xml:space="preserve">
<g>
	<defs>
		<rect id="SVGID_1_" width="512" height="238"/>
	</defs>
	<clipPath id="SVGID_2_">
		<use xlink:href="#SVGID_1_"  overflow="visible"/>
	</clipPath>
	<path clip-path="url(#SVGID_2_)" fill="#0DB098" d="M110,238H94c-1.1-0.4-2.2-0.8-3.3-1.1c-22-6.2-35.3-20.3-39.2-43
		c-0.4-2.4-0.8-4.8-1.2-7.3c-2.1-0.5-3.8-1-5.6-1.5c-17.1-4.6-30.1-14.7-38.2-30.5c-3-5.8-4.4-12.4-6.6-18.7c0-5.7,0-11.3,0-17
		c0.6-2.1,1.2-4.1,1.7-6.2c6.7-26.1,29.9-44.5,56.8-44.9c16.5-0.2,31.3-5.1,44.6-15c16-11.9,32.3-23.5,48.5-35.2
		c10.2-7.4,21.5-12.6,33.8-15.5c3.5-0.8,7.1-1.5,10.7-2.3h90c0.9,0.3,1.9,0.7,2.8,0.9c13.7,2.2,26.2,7.3,37.9,14.7
		c22.3,14.2,44.7,28.4,67.1,42.6c10.7,6.8,22,11.7,34.5,13.9c13.8,2.4,27.6,4.7,41.4,7c21.3,3.5,35.3,15.2,41.3,36.2
		c0.3,1,0.7,1.9,1,2.8v34c-0.4,1.2-0.9,2.5-1.3,3.7c-6.2,21.8-26.4,32.4-42.9,31.5c-2.1-0.1-4.2,0.2-6,0.3c-0.3,0.8-0.4,0.9-0.4,1.1
		c-0.3,1.6-0.5,3.3-0.8,4.9c-3.9,23.1-17.4,37.4-39.8,43.6c-0.9,0.3-1.9,0.6-2.8,1h-17c-0.9-0.3-1.8-0.7-2.8-1
		c-22.6-6.3-36.2-20.9-39.7-44.3c-0.3-1.7-0.7-3.5-1.1-5.2H154.4c-0.4,2.2-0.8,4.1-1.1,6.1c-2.8,20.9-17.2,37.3-37.6,42.8
		C113.8,236.9,111.9,237.5,110,238 M493.1,118.8c-0.2-1.6-0.1-2.2-0.3-2.8c-0.5-1.2-1-2.5-1.6-3.7c-5.2-9.8-13.7-14.3-24.4-16.2
		c-18.7-3.2-37.7-4.9-55.9-10.6c-1.4-0.4-3-0.3-4.5-0.3c-113.8,0-227.6,0-341.4,0c-4.1,0-8.3,0.2-12.4,0.9
		c-19.7,3-34.2,19.6-35.3,40.2c-1,18.8,12.8,37.2,31.4,41.9c1.7,0.4,3.5,0.5,5.3,0.7c10.1-21,25.9-33.2,49.2-32.9
		c23.3,0.3,38.7,13.1,48,33.6h209.8c9.7-21.1,25.4-33.7,49-33.6c23.6,0.1,39.1,12.9,48.4,33.5c25.3,2.4,42.3-13.5,35.3-33.3
		c-2.3,0-4.8,0-7.3,0c-5.8,0-11.7,0.1-17.5-0.1c-4.9-0.2-8-3.8-8.1-8.5c0-4.7,3.1-8.2,7.9-8.7c2.3-0.2,4.7-0.1,7-0.1
		C481.3,118.8,486.9,118.8,493.1,118.8 M375.4,67.5c-1.7-1.3-2.6-2.1-3.5-2.6c-19.3-12.2-38.5-24.5-57.9-36.5
		c-9.5-5.9-19.8-9.8-31-10.4c-13.1-0.6-26.3-0.6-39.4-0.7c-16.9-0.2-29.8,7.2-38.8,21.4c-5.2,8.2-10.3,16.3-15.4,24.6
		c-0.7,1.2-1.3,2.6-2.1,4.4H375.4z M375.9,186.9c-0.3,18.2,14.6,33.4,33,33.9c18.6,0.4,34.3-14.9,34.6-33.5
		c0.3-18.1-14.9-33.7-33-34.1C391.3,152.8,376.2,167.6,375.9,186.9 M136.1,187c-0.2-19.1-15.1-33.9-34-33.8
		c-18.3,0.1-33.9,15.9-33.5,34c0.5,19,15.6,33.7,34.5,33.6C121.3,220.6,136.3,205.3,136.1,187 M197.2,18.1c-2,0.3-3.6,0.4-5.2,0.7
		c-10.8,2.1-20.7,6.3-29.6,12.7c-15.3,11-30.4,22.1-45.7,33.1c-1,0.7-2.2,1.2-3.3,1.8c0.4,0.4,0.7,0.9,1.1,1.3h51.2
		C176.1,51.4,186.5,35,197.2,18.1"/>
	<path clip-path="url(#SVGID_2_)" fill="#0DB098" d="M265,101.9c2.8,0,5.6-0.1,8.5,0c4.9,0.3,8.5,4.2,8.4,8.8
		c-0.1,4.4-3.5,8.2-8.3,8.4c-6,0.3-11.9,0.3-17.9,0c-4.8-0.2-8.3-3.9-8.4-8.2c-0.1-4.6,3.4-8.5,8.3-8.9
		C258.7,101.7,261.8,101.9,265,101.9"/>
	<path clip-path="url(#SVGID_2_)" fill="#0DB098" d="M409.9,169.8c9.4,0.1,17.1,8,17,17.4c-0.1,9.4-7.8,17-17.3,17
		c-9.5,0-17.3-7.8-17.3-17C392.2,177.5,400.2,169.7,409.9,169.8"/>
	<path clip-path="url(#SVGID_2_)" fill="#0DB098" d="M102.3,204.1c-9.4,0-17.2-7.7-17.2-17.1c0-9.5,8-17.3,17.6-17.2
		c9.5,0.1,17.1,7.9,16.9,17.3C119.5,196.6,111.8,204.2,102.3,204.1"/>
</g>
</svg>
