<?xml version="1.0" encoding="utf-8"?>
<!-- Generator: Adobe Illustrator 18.0.0, SVG Export Plug-In . SVG Version: 6.00 Build 0)  -->
<!DOCTYPE svg PUBLIC "-//W3C//DTD SVG 1.1//EN" "http://www.w3.org/Graphics/SVG/1.1/DTD/svg11.dtd">
<svg version="1.1" id="Layer_1" xmlns="http://www.w3.org/2000/svg" xmlns:xlink="http://www.w3.org/1999/xlink" x="0px" y="0px"
	 viewBox="0 0 610.2 131.2" enable-background="new 0 0 610.2 131.2" xml:space="preserve">
<g>
	<defs>
		<rect id="SVGID_1_" width="610.2" height="131.2"/>
	</defs>
	<clipPath id="SVGID_2_">
		<use xlink:href="#SVGID_1_"  overflow="visible"/>
	</clipPath>
	<path clip-path="url(#SVGID_2_)" fill="#262626" d="M168.4,47.9c-2.2-0.6-4.2-0.9-6.1-0.9c-3.1,0-5.5,0.6-7.4,1.8
		c-1.9,1.2-2.8,2.9-2.8,4.9c0,1.8,0.5,3.3,1.5,4.5c1,1.1,2.3,2.1,3.8,2.7c1.5,0.7,3.5,1.4,6.1,2.2c3,0.9,5.5,1.8,7.3,2.6
		c1.9,0.9,3.4,2.1,4.7,3.8c1.3,1.7,1.9,3.9,1.9,6.6c0,2.4-0.7,4.5-2,6.3c-1.3,1.8-3.2,3.2-5.6,4.2s-5.2,1.5-8.4,1.5
		c-3.1,0-6.1-0.6-9.1-1.9c-3-1.2-5.5-2.9-7.6-4.9l2-3.6c2,2,4.3,3.5,7,4.6c2.6,1.1,5.2,1.7,7.8,1.7c3.4,0,6.1-0.7,8.1-2.1
		c2-1.4,3-3.2,3-5.6c0-1.9-0.5-3.4-1.5-4.6c-1-1.2-2.3-2.1-3.8-2.7c-1.5-0.6-3.6-1.4-6.3-2.2c-3-0.9-5.4-1.8-7.3-2.7
		c-1.8-0.8-3.4-2.1-4.7-3.7c-1.3-1.6-1.9-3.8-1.9-6.4c0-2.3,0.6-4.2,1.9-5.9c1.3-1.7,3.1-3,5.4-3.9c2.3-0.9,5-1.4,8-1.4
		c2.4,0,4.9,0.4,7.3,1.1c2.4,0.7,4.6,1.7,6.5,2.9l-1.9,3.8C172.5,49.4,170.5,48.5,168.4,47.9"/>
	<path clip-path="url(#SVGID_2_)" fill="#262626" d="M233.3,91.9c-1.7,1.6-3.5,2.8-5.5,3.6c-1.9,0.8-3.8,1.3-5.7,1.3
		c-4.9,0-9.5-2.8-13.9-8.5h-0.8c-4.3,0-8.2-1-11.7-3.1c-3.6-2-6.4-4.8-8.5-8.3c-2.1-3.5-3.1-7.3-3.1-11.4c0-4.1,1-7.9,3.1-11.4
		c2.1-3.4,4.9-6.2,8.5-8.2c3.6-2,7.5-3,11.7-3c4.3,0,8.2,1,11.7,3c3.6,2,6.4,4.8,8.5,8.2c2.1,3.4,3.1,7.2,3.1,11.4
		c0,3.5-0.8,6.8-2.3,9.9c-1.5,3.1-3.6,5.7-6.3,7.8c-2.7,2.1-5.7,3.6-9.1,4.4c3.4,3.5,6.7,5.3,9.6,5.3c2.7,0,5.6-1.4,8.7-4.2
		L233.3,91.9z M191.1,74.9c1.7,2.9,4,5.2,6.9,6.9c2.9,1.7,6,2.5,9.4,2.5c3.4,0,6.5-0.8,9.4-2.5c2.9-1.7,5.2-4,6.9-6.9
		c1.7-2.9,2.6-6,2.6-9.4s-0.9-6.5-2.6-9.4c-1.7-2.9-4-5.1-6.9-6.8c-2.9-1.7-6-2.5-9.4-2.5c-3.4,0-6.6,0.8-9.4,2.5
		c-2.9,1.7-5.2,3.9-6.9,6.8c-1.7,2.9-2.6,6-2.6,9.4S189.4,72,191.1,74.9"/>
	<path clip-path="url(#SVGID_2_)" fill="#262626" d="M248.3,80.5c2.5,2.6,5.9,3.8,10.4,3.8c4.4,0,7.9-1.3,10.3-3.8
		c2.5-2.6,3.7-6.1,3.7-10.7V43.2h4.4v26.6c0,5.8-1.6,10.3-4.9,13.6c-3.3,3.3-7.8,4.9-13.6,4.9c-5.8,0-10.3-1.6-13.6-4.9
		c-3.3-3.3-4.9-7.8-4.9-13.6V43.2h4.4v26.6C244.6,74.4,245.8,77.9,248.3,80.5"/>
	<path clip-path="url(#SVGID_2_)" fill="#262626" d="M322.2,87.9L316.9,76h-24.8l-5.2,11.9h-4.7l20.1-44.6h4.6L327,87.9H322.2z
		 M293.9,72.1h21.3l-10.7-24.1L293.9,72.1z"/>
	<path clip-path="url(#SVGID_2_)" fill="#262626" d="M363.8,87.9l-9.6-14.6c-1.4,0.1-2.4,0.1-3.1,0.1h-12.3v14.4h-4.4V43.3H351
		c5.6,0,9.9,1.3,12.9,3.9c3,2.6,4.6,6.2,4.6,10.9c0,3.7-0.9,6.8-2.7,9.3c-1.8,2.5-4.3,4.2-7.7,5.2l10.7,15.4H363.8z M351,69.5
		c4.3,0,7.5-1,9.8-2.9c2.3-1.9,3.4-4.7,3.4-8.4c0-3.6-1.1-6.3-3.4-8.2c-2.3-1.9-5.6-2.8-9.8-2.8h-12.3v22.3H351z"/>
	<polygon clip-path="url(#SVGID_2_)" fill="#262626" points="380.5,43.3 410.4,43.3 410.4,47.2 384.9,47.2 384.9,63.2 407.7,63.2 
		407.7,67.1 384.9,67.1 384.9,83.9 411.2,83.9 411.2,87.9 380.5,87.9 	"/>
	<path clip-path="url(#SVGID_2_)" fill="#262626" d="M441.5,51.4c-2.4-0.8-4.5-1.2-6.4-1.2c-2,0-3.7,0.4-4.9,1.2
		c-1.2,0.8-1.8,1.8-1.8,3.2c0,1.2,0.4,2.3,1.2,3.1c0.8,0.8,1.9,1.5,3.1,2c1.3,0.5,3,1.1,5.1,1.8c3,0.9,5.5,1.8,7.4,2.7
		c1.9,0.9,3.6,2.2,4.9,4c1.4,1.7,2,4,2,6.9c0,2.7-0.7,5.1-2.2,7.1s-3.5,3.6-6.1,4.6c-2.6,1.1-5.5,1.6-8.8,1.6
		c-3.5,0-6.9-0.6-10.2-1.9c-3.3-1.3-6.2-3-8.7-5.2L420,74c2.3,2.1,4.8,3.7,7.6,4.9c2.8,1.2,5.4,1.8,7.9,1.8c2.4,0,4.3-0.5,5.6-1.4
		c1.4-0.9,2-2.2,2-3.7c0-1.3-0.4-2.3-1.2-3.2c-0.8-0.8-1.9-1.5-3.2-2c-1.3-0.5-3-1.1-5.2-1.7c-3-0.9-5.5-1.8-7.4-2.6
		c-1.9-0.9-3.6-2.1-4.9-3.9c-1.4-1.7-2-4-2-6.8c0-2.6,0.7-4.9,2.1-6.8c1.4-1.9,3.3-3.4,5.9-4.5c2.5-1.1,5.5-1.6,8.8-1.6
		c2.9,0,5.8,0.4,8.6,1.3c2.8,0.9,5.4,2,7.6,3.4l-3.4,7.5C446.3,53.3,443.9,52.2,441.5,51.4"/>
	<rect x="460.6" y="43.2" clip-path="url(#SVGID_2_)" fill="#262626" width="8.6" height="44.7"/>
	<path clip-path="url(#SVGID_2_)" fill="#262626" d="M510.4,65.7h7.5v17c-2.3,1.7-5.1,3.2-8.3,4.2c-3.2,1.1-6.3,1.6-9.4,1.6
		c-4.4,0-8.4-1-12-3.1c-3.6-2-6.4-4.8-8.5-8.3c-2.1-3.5-3.1-7.4-3.1-11.7c0-4.3,1.1-8.1,3.2-11.6c2.1-3.5,5-6.2,8.7-8.2
		c3.7-2,7.8-3,12.2-3c3.2,0,6.3,0.6,9.4,1.7c3.1,1.1,5.8,2.7,8,4.7l-4.9,6.3c-1.7-1.6-3.7-2.9-5.9-3.8c-2.2-0.9-4.5-1.3-6.7-1.3
		c-2.8,0-5.4,0.7-7.8,2c-2.4,1.3-4.2,3.2-5.6,5.5c-1.4,2.3-2,4.9-2,7.7c0,2.8,0.7,5.4,2.1,7.7c1.4,2.3,3.2,4.2,5.6,5.6
		c2.3,1.4,4.9,2,7.8,2c1.5,0,3.1-0.2,4.8-0.7c1.7-0.5,3.3-1.2,4.8-2.1V65.7z"/>
	<polygon clip-path="url(#SVGID_2_)" fill="#262626" points="558.9,43.2 567.2,43.2 567.2,87.9 559.1,87.9 536.1,57.1 536.1,87.9 
		527.8,87.9 527.8,43.2 535.9,43.2 558.9,74 	"/>
	<path clip-path="url(#SVGID_2_)" fill="#262626" d="M599.2,51.4c-2.4-0.8-4.5-1.2-6.4-1.2c-2,0-3.7,0.4-4.9,1.2
		c-1.2,0.8-1.8,1.8-1.8,3.2c0,1.2,0.4,2.3,1.2,3.1c0.8,0.8,1.9,1.5,3.1,2c1.3,0.5,3,1.1,5.1,1.8c3,0.9,5.5,1.8,7.4,2.7
		c1.9,0.9,3.6,2.2,4.9,4c1.4,1.7,2,4,2,6.9c0,2.7-0.7,5.1-2.2,7.1c-1.5,2-3.5,3.6-6.1,4.6c-2.6,1.1-5.5,1.6-8.8,1.6
		c-3.5,0-6.9-0.6-10.2-1.9c-3.3-1.3-6.2-3-8.7-5.2l3.6-7.3c2.3,2.1,4.8,3.7,7.6,4.9c2.8,1.2,5.4,1.8,7.9,1.8c2.4,0,4.3-0.5,5.6-1.4
		c1.4-0.9,2-2.2,2-3.7c0-1.3-0.4-2.3-1.2-3.2s-1.9-1.5-3.2-2c-1.3-0.5-3-1.1-5.2-1.7c-3-0.9-5.5-1.8-7.4-2.6
		c-1.9-0.9-3.6-2.1-4.9-3.9c-1.4-1.7-2-4-2-6.8c0-2.6,0.7-4.9,2.1-6.8c1.4-1.9,3.3-3.4,5.9-4.5c2.5-1.1,5.5-1.6,8.8-1.6
		c2.9,0,5.8,0.4,8.6,1.3c2.8,0.9,5.4,2,7.6,3.4l-3.4,7.5C604,53.3,601.6,52.2,599.2,51.4"/>
</g>
<g>
	<defs>
		<polygon id="SVGID_3_" points="65.6,0 0,65.6 51,116.6 102.1,65.6 80.2,43.7 51,72.9 43.7,65.6 80.2,29.2 116.6,65.6 58.3,123.9 
			65.6,131.2 131.2,65.6 80.2,14.6 29.1,65.6 51,87.5 80.2,58.3 87.5,65.6 51,102 14.6,65.6 72.9,7.3 		"/>
	</defs>
	<clipPath id="SVGID_4_">
		<use xlink:href="#SVGID_3_"  overflow="visible"/>
	</clipPath>
	
		<linearGradient id="SVGID_5_" gradientUnits="userSpaceOnUse" x1="0" y1="131.205" x2="1" y2="131.205" gradientTransform="matrix(65.6018 -66.144 -66.144 -65.6018 8711.1504 8706.0293)">
		<stop  offset="0" style="stop-color:#0194D3"/>
		<stop  offset="1" style="stop-color:#00B495"/>
	</linearGradient>
	<polygon clip-path="url(#SVGID_4_)" fill="url(#SVGID_5_)" points="-65.6,66.1 65.1,-65.6 196.8,65.1 66.1,196.8 	"/>
</g>
</svg>
