<svg xmlns="http://www.w3.org/2000/svg" xmlns:xlink="http://www.w3.org/1999/xlink" width="19.69" height="31.687" viewBox="0 0 19.69 31.687">
  <metadata><?xpacket begin="﻿" id="W5M0MpCehiHzreSzNTczkc9d"?>
<x:xmpmeta xmlns:x="adobe:ns:meta/" x:xmptk="Adobe XMP Core 5.6-c138 79.159824, 2016/09/14-01:09:01        ">
   <rdf:RDF xmlns:rdf="http://www.w3.org/1999/02/22-rdf-syntax-ns#">
      <rdf:Description rdf:about=""/>
   </rdf:RDF>
</x:xmpmeta>
                                                                                                    
                                                                                                    
                                                                                                    
                                                                                                    
                                                                                                    
                                                                                                    
                                                                                                    
                                                                                                    
                                                                                                    
                                                                                                    
                                                                                                    
                                                                                                    
                                                                                                    
                                                                                                    
                                                                                                    
                                                                                                    
                                                                                                    
                                                                                                    
                                                                                                    
                                                                                                    
                           
<?xpacket end="w"?></metadata>
<defs>
    <style>
      .cls-1 {
        fill: #c4d4e1;
        fill-rule: evenodd;
        filter: url(#filter);
      }
    </style>
    <filter id="filter" x="1466.97" y="174.219" width="19.69" height="31.687" filterUnits="userSpaceOnUse">
      <feFlood result="flood" flood-color="#3f3f3f"/>
      <feComposite result="composite" operator="in" in2="SourceGraphic"/>
      <feBlend result="blend" in2="SourceGraphic"/>
    </filter>
  </defs>
  <path id="Shape_5_copy" data-name="Shape 5 copy" class="cls-1" d="M1475.49,200.139V176.933c0-.252-0.01-0.5,0-0.755,0.02-.971.12-1.965,1.32-1.956s1.3,1,1.3,1.972v23.95c0.11,0.056.22,0.112,0.32,0.167,1.18-1.275,2.35-2.554,3.53-3.825,0.67-.719,1.38-1.4,2.02-2.143,0.67-.779,1.47-1.207,2.26-0.423,0.77,0.773.31,1.635-.32,2.305-3,3.179-6.01,6.343-9.19,9.693-0.67-.761-1.3-1.5-1.96-2.207-2.24-2.38-4.5-4.745-6.75-7.117a7.855,7.855,0,0,1-.58-0.627,1.444,1.444,0,0,1-.08-2.026,1.287,1.287,0,0,1,2.01.154q2.49,2.619,4.97,5.25a9.839,9.839,0,0,1,.74.981C1475.22,200.264,1475.35,200.2,1475.49,200.139Z" transform="translate(-1466.97 -174.219)"/>
</svg>
