<?xml version="1.0" encoding="utf-8"?>
<!-- Generator: Adobe Illustrator 18.0.0, SVG Export Plug-In . SVG Version: 6.00 Build 0)  -->
<!DOCTYPE svg PUBLIC "-//W3C//DTD SVG 1.1//EN" "http://www.w3.org/Graphics/SVG/1.1/DTD/svg11.dtd">
<svg version="1.1" id="Layer_1" xmlns="http://www.w3.org/2000/svg" xmlns:xlink="http://www.w3.org/1999/xlink" x="0px" y="0px"
	 viewBox="15.1 12.5 18 5.3" enable-background="new 15.1 12.5 18 5.3" xml:space="preserve">
<g>
	<polygon fill="#F8F8F8" points="15.9,13.4 15.1,13 15.1,13.9 15.9,14.4 	"/>
	<polygon fill="#E1E3E2" points="15.9,13.5 15.1,13.9 15.9,14.4 	"/>
	<polygon fill="#D2D4D3" points="15.9,14.4 15.1,13.9 15.1,14.8 	"/>
	<polyline fill="#F8F8F8" points="15.9,14.3 15.1,14.8 15.9,15.2 15.9,14.4 	"/>
	<polygon fill="#E1E3E2" points="15.1,14.8 15.1,15.7 15.9,15.2 	"/>
	<polygon fill="#D2D4D3" points="15.9,15.2 15.1,15.7 15.9,16.1 	"/>
	<polygon fill="#E1E3E2" points="15.1,15.6 15.1,16.6 15.9,16.1 	"/>
	<polygon fill="#D2D4D3" points="15.1,16.5 15.9,16.1 15.9,17 	"/>
	<polygon fill="#E1E3E2" points="15.9,16.1 15.9,17 16.7,16.5 	"/>
	<polygon fill="#D2D4D3" points="16.7,16.5 15.9,17 16.7,17.5 	"/>
	<polyline fill="#E1E3E2" points="16.7,16.6 16.7,17.5 17.4,17 16.7,16.6 	"/>
	<polygon fill="#D2D4D3" points="17.4,16.1 16.7,16.6 17.4,17 	"/>
	<polygon fill="#E1E3E2" points="17.4,16.1 17.4,17 18.2,16.6 	"/>
	<polygon fill="#D2D4D3" points="17.4,16.1 18.2,15.7 18.2,16.6 	"/>
	<polyline fill="#E1E3E2" points="18.2,15.7 18.1,15.7 17.4,15.2 17.4,16.1 	"/>
	<polygon fill="#D2D4D3" points="18.1,14.8 17.4,15.2 18.1,15.7 	"/>
	<polygon fill="#E1E3E2" points="17.4,14.3 17.4,15.2 18.1,14.8 	"/>
	<polyline fill="#D2D4D3" points="17.4,14.3 16.7,14.8 17.4,15.2 17.4,14.4 	"/>
	<polygon fill="#E1E3E2" points="16.7,13.9 16.7,14.8 17.4,14.3 	"/>
</g>
<g>
	<path fill="#FFFFFF" d="M20.1,16.2v-1.7h0.5c0.1,0,0.2,0,0.3,0c0.1,0,0.1,0,0.2,0.1c0,0,0.1,0.1,0.1,0.1c0,0.1,0,0.1,0,0.2
		c0,0,0,0.1,0,0.1s0,0.1-0.1,0.1c0,0-0.1,0.1-0.1,0.1c0,0-0.1,0-0.1,0.1c0.1,0,0.2,0.1,0.3,0.1c0.1,0.1,0.1,0.1,0.1,0.3
		c0,0.1,0,0.1,0,0.2c0,0.1-0.1,0.1-0.1,0.2c-0.1,0-0.1,0.1-0.2,0.1c-0.1,0-0.2,0-0.3,0H20.1z M20.3,15.3h0.3c0.1,0,0.1,0,0.2,0
		s0.1,0,0.1-0.1c0,0,0.1-0.1,0.1-0.1c0,0,0-0.1,0-0.1c0-0.1,0-0.2-0.1-0.2c-0.1,0-0.2-0.1-0.3-0.1h-0.3V15.3z M20.3,15.4V16h0.4
		c0.1,0,0.1,0,0.2,0c0,0,0.1,0,0.1-0.1c0,0,0.1-0.1,0.1-0.1s0-0.1,0-0.1c0-0.1,0-0.2-0.1-0.2c-0.1,0-0.2-0.1-0.3-0.1H20.3z"/>
	<path fill="#FFFFFF" d="M21.5,16.2V15h0.1c0,0,0,0,0,0s0,0,0,0l0,0.2c0-0.1,0.1-0.1,0.2-0.2C22,15,22,15,22.1,15c0,0,0.1,0,0.1,0
		c0,0,0.1,0,0.1,0l0,0.2c0,0,0,0,0,0c0,0,0,0-0.1,0c0,0-0.1,0-0.1,0c-0.1,0-0.1,0-0.2,0.1c0,0-0.1,0.1-0.1,0.2v0.8H21.5z"/>
	<path fill="#FFFFFF" d="M22.8,14.6C22.8,14.6,22.8,14.7,22.8,14.6c0,0.1,0,0.1,0,0.1s0,0,0,0c0,0,0,0-0.1,0s0,0-0.1,0s0,0,0,0
		s0,0,0,0s0,0,0-0.1c0,0,0,0,0-0.1s0,0,0,0s0,0,0,0s0,0,0.1,0s0,0,0.1,0c0,0,0,0,0,0S22.8,14.6,22.8,14.6
		C22.8,14.6,22.8,14.6,22.8,14.6z M22.7,15v1.2h-0.2V15H22.7z"/>
	<path fill="#FFFFFF" d="M23.5,15c0.1,0,0.1,0,0.1,0c0,0,0.1,0,0.1,0h0.3v0.1c0,0,0,0,0,0l-0.1,0c0,0.1,0,0.1,0,0.2
		c0,0.1,0,0.1,0,0.2c0,0-0.1,0.1-0.1,0.1c0,0-0.1,0.1-0.1,0.1c-0.1,0-0.1,0-0.2,0c-0.1,0-0.1,0-0.2,0c0,0,0,0-0.1,0.1s0,0,0,0.1
		c0,0,0,0.1,0,0.1c0,0,0.1,0,0.1,0c0,0,0.1,0,0.1,0s0.1,0,0.1,0c0,0,0.1,0,0.1,0c0,0,0.1,0,0.1,0c0,0,0.1,0,0.1,0.1c0,0,0,0.1,0,0.1
		c0,0.1,0,0.1,0,0.1s-0.1,0.1-0.1,0.1c0,0-0.1,0.1-0.2,0.1c-0.1,0-0.1,0-0.2,0s-0.2,0-0.2,0c-0.1,0-0.1,0-0.2-0.1
		c0,0-0.1-0.1-0.1-0.1s0-0.1,0-0.1c0-0.1,0-0.1,0.1-0.1s0.1-0.1,0.2-0.1c0,0-0.1,0-0.1-0.1c0,0,0-0.1,0-0.1c0,0,0,0,0-0.1
		c0,0,0,0,0-0.1c0,0,0,0,0-0.1s0,0,0.1,0c-0.1,0-0.1-0.1-0.1-0.1c0-0.1,0-0.1,0-0.2c0-0.1,0-0.1,0-0.2c0,0,0.1-0.1,0.1-0.1
		s0.1-0.1,0.1-0.1C23.4,15,23.4,15,23.5,15z M23.9,16.2C23.9,16.2,23.9,16.2,23.9,16.2c0-0.1-0.1-0.1-0.1-0.1c0,0-0.1,0-0.1,0
		c0,0-0.1,0-0.1,0s-0.1,0-0.1,0s-0.1,0-0.1,0c0,0-0.1,0-0.1,0.1c0,0,0,0.1,0,0.1c0,0,0,0.1,0,0.1c0,0,0,0,0.1,0.1s0.1,0,0.1,0
		c0,0,0.1,0,0.2,0c0.1,0,0.1,0,0.2,0c0,0,0.1,0,0.1,0C23.8,16.4,23.8,16.4,23.9,16.2C23.9,16.3,23.9,16.3,23.9,16.2z M23.5,15.6
		c0,0,0.1,0,0.1,0c0,0,0.1,0,0.1,0c0,0,0,0,0-0.1s0-0.1,0-0.1c0-0.1,0-0.1-0.1-0.2s-0.1-0.1-0.2-0.1s-0.1,0-0.2,0.1
		s-0.1,0.1-0.1,0.2c0,0,0,0.1,0,0.1c0,0,0,0.1,0,0.1c0,0,0,0,0.1,0S23.4,15.6,23.5,15.6z"/>
	<path fill="#FFFFFF" d="M24.3,16.2v-1.7h0.2v0.7c0.1-0.1,0.1-0.1,0.2-0.1s0.1,0,0.2,0c0.1,0,0.1,0,0.2,0s0.1,0.1,0.1,0.1
		c0,0,0.1,0.1,0.1,0.1c0,0.1,0,0.1,0,0.2v0.8h-0.2v-0.8c0-0.1,0-0.2-0.1-0.2c0,0-0.1-0.1-0.2-0.1c-0.1,0-0.1,0-0.2,0
		c-0.1,0-0.1,0.1-0.1,0.1v0.9H24.3z"/>
	<path fill="#FFFFFF" d="M25.9,16.2c-0.1,0-0.2,0-0.2-0.1c-0.1-0.1-0.1-0.1-0.1-0.2v-0.7h-0.1c0,0,0,0,0,0c0,0,0,0,0,0V15l0.2,0
		l0-0.4c0,0,0,0,0,0c0,0,0,0,0,0h0.1V15h0.3v0.2h-0.3v0.7c0,0,0,0.1,0,0.1c0,0,0.1,0,0.1,0c0,0,0,0,0.1,0c0,0,0,0,0,0c0,0,0,0,0,0
		c0,0,0,0,0,0c0,0,0,0,0,0l0.1,0.1c0,0-0.1,0.1-0.1,0.1C26.1,16.2,26,16.2,25.9,16.2z"/>
	<path fill="#FFFFFF" d="M27.6,15.7C27.6,15.7,27.6,15.7,27.6,15.7C27.6,15.8,27.6,15.8,27.6,15.7l0.2,0.2c-0.1,0.1-0.2,0.2-0.3,0.2
		s-0.2,0.1-0.4,0.1c-0.1,0-0.2,0-0.3-0.1c-0.1,0-0.2-0.1-0.3-0.2c-0.1-0.1-0.1-0.2-0.2-0.3c0-0.1-0.1-0.2-0.1-0.3
		c0-0.1,0-0.2,0.1-0.4c0-0.1,0.1-0.2,0.2-0.3c0.1-0.1,0.2-0.1,0.3-0.2s0.2-0.1,0.4-0.1c0.1,0,0.1,0,0.2,0c0.1,0,0.1,0,0.2,0
		c0,0,0.1,0,0.1,0.1c0,0,0.1,0.1,0.1,0.1l-0.1,0.2c0,0,0,0,0,0c0,0,0,0,0,0c0,0,0,0,0,0c0,0,0,0,0,0c0,0,0,0,0,0c0,0,0,0-0.1,0
		c0,0,0,0-0.1,0c0,0-0.1,0-0.1,0c-0.1,0-0.1,0-0.2,0c-0.1,0-0.1,0.1-0.2,0.1c0,0-0.1,0.1-0.1,0.2c0,0.1,0,0.1,0,0.2
		c0,0.1,0,0.2,0,0.2c0,0.1,0.1,0.1,0.1,0.2c0,0,0.1,0.1,0.1,0.1s0.1,0,0.2,0c0,0,0.1,0,0.1,0c0,0,0.1,0,0.1,0s0,0,0.1,0
		C27.5,15.8,27.5,15.8,27.6,15.7C27.5,15.8,27.5,15.8,27.6,15.7C27.6,15.7,27.6,15.7,27.6,15.7z"/>
	<path fill="#FFFFFF" d="M29.7,15.3c0,0.1,0,0.2-0.1,0.3c0,0.1-0.1,0.2-0.2,0.3c-0.1,0.1-0.2,0.1-0.3,0.2c-0.1,0-0.2,0.1-0.4,0.1
		c-0.1,0-0.3,0-0.4-0.1c-0.1,0-0.2-0.1-0.3-0.2c-0.1-0.1-0.1-0.2-0.2-0.3c0-0.1-0.1-0.2-0.1-0.3s0-0.2,0.1-0.3
		c0-0.1,0.1-0.2,0.2-0.3c0.1-0.1,0.2-0.1,0.3-0.2c0.1,0,0.2-0.1,0.4-0.1c0.1,0,0.3,0,0.4,0.1c0.1,0,0.2,0.1,0.3,0.2
		c0.1,0.1,0.1,0.2,0.2,0.3C29.6,15.1,29.7,15.2,29.7,15.3z M29.2,15.3c0-0.1,0-0.2,0-0.2c0-0.1-0.1-0.1-0.1-0.2S29,14.9,29,14.8
		c-0.1,0-0.1,0-0.2,0c-0.1,0-0.1,0-0.2,0c-0.1,0-0.1,0.1-0.2,0.1s-0.1,0.1-0.1,0.2c0,0.1,0,0.1,0,0.2c0,0.1,0,0.2,0,0.2
		c0,0.1,0.1,0.1,0.1,0.2s0.1,0.1,0.2,0.1s0.1,0,0.2,0c0.1,0,0.1,0,0.2,0s0.1-0.1,0.2-0.1s0.1-0.1,0.1-0.2
		C29.2,15.5,29.2,15.4,29.2,15.3z"/>
	<path fill="#FFFFFF" d="M30.3,16.2h-0.4v-1.7h0.4V16.2z"/>
	<path fill="#FFFFFF" d="M30.8,14.5C30.9,14.5,30.9,14.5,30.8,14.5C30.9,14.5,30.9,14.5,30.8,14.5C30.9,14.5,30.9,14.5,30.8,14.5
		l0.9,1.1c0,0,0-0.1,0-0.1c0,0,0-0.1,0-0.1v-0.9h0.3v1.7h-0.2c0,0-0.1,0-0.1,0c0,0,0,0-0.1-0.1l-0.8-1c0,0,0,0.1,0,0.1
		c0,0,0,0.1,0,0.1v0.9h-0.3v-1.7L30.8,14.5C30.8,14.5,30.8,14.5,30.8,14.5z"/>
</g>
</svg>
